<?xml version="1.0" encoding="UTF-8" standalone="no"?><svg xmlns="http://www.w3.org/2000/svg" xmlns:xlink="http://www.w3.org/1999/xlink" clip-rule="evenodd" stroke-miterlimit="4.00" viewBox="0 0 720 540"><desc>SVG generated by Keynote</desc><defs></defs><g transform="matrix(1.00, 0.00, -0.00, -1.00, 0.0, 540.0)"><g><clipPath id="clip-83"><path d="M 0.0 540.0 L 720.0 540.0 L 720.0 0.0 L 0.0 0.0 Z M 0.0 540.0 "></path></clipPath><g clip-path="url(#clip-83)"><image xlink:href="../../D4C2A304-6AEB-4EE1-82FF-F06C5FD3A0CF/assets/0188245E957EEFBAE5108680EFA80732.jpeg" width="720.00" height="576.00" transform="matrix(1.00, 0.00, -0.00, -0.94, 0.0, 540.0)"></image></g></g><text xml:space="preserve" font-family="TrebuchetMS-Bold" font-weight="bold" font-size="54.0" fill="#000000" transform="matrix(1.00, 0.00, -0.00, -1.00, 219.0, 255.0)">T</text><text xml:space="preserve" font-family="TrebuchetMS-Bold" font-weight="bold" font-size="54.0" fill="#000000" transform="matrix(1.00, 0.00, -0.00, -1.00, 252.0, 255.0)">h</text><text xml:space="preserve" font-family="TrebuchetMS-Bold" font-weight="bold" font-size="54.0" fill="#000000" transform="matrix(1.00, 0.00, -0.00, -1.00, 284.0, 255.0)">a</text><text xml:space="preserve" font-family="TrebuchetMS-Bold" font-weight="bold" font-size="54.0" fill="#000000" transform="matrix(1.00, 0.00, -0.00, -1.00, 312.8, 255.0)">n</text><text xml:space="preserve" font-family="TrebuchetMS-Bold" font-weight="bold" font-size="54.0" fill="#000000" transform="matrix(1.00, 0.00, -0.00, -1.00, 344.7, 255.0)">k</text><text xml:space="preserve" font-family="TrebuchetMS-Bold" font-weight="bold" font-size="54.0" fill="#000000" transform="matrix(1.00, 0.00, -0.00, -1.00, 374.3, 255.0)"> </text><text xml:space="preserve" font-family="TrebuchetMS-Bold" font-weight="bold" font-size="54.0" fill="#000000" transform="matrix(1.00, 0.00, -0.00, -1.00, 389.6, 255.0)">Y</text><text xml:space="preserve" font-family="TrebuchetMS-Bold" font-weight="bold" font-size="54.0" fill="#000000" transform="matrix(1.00, 0.00, -0.00, -1.00, 417.8, 255.0)">o</text><text xml:space="preserve" font-family="TrebuchetMS-Bold" font-weight="bold" font-size="54.0" fill="#000000" transform="matrix(1.00, 0.00, -0.00, -1.00, 448.3, 255.0)">u</text><text xml:space="preserve" font-family="TrebuchetMS-Bold" font-weight="bold" font-size="54.0" fill="#000000" transform="matrix(1.00, 0.00, -0.00, -1.00, 480.2, 255.0)">!</text></g></svg>