<?xml version="1.0" encoding="UTF-8" standalone="no"?><svg xmlns="http://www.w3.org/2000/svg" xmlns:xlink="http://www.w3.org/1999/xlink" clip-rule="evenodd" stroke-miterlimit="4.00" viewBox="0 0 720 540"><desc>SVG generated by Keynote</desc><defs></defs><g transform="matrix(1.00, 0.00, -0.00, -1.00, 0.0, 540.0)"><g><clipPath id="clip-51"><path d="M 0.0 540.0 L 720.0 540.0 L 720.0 0.0 L 0.0 0.0 Z M 0.0 540.0 "></path></clipPath><g clip-path="url(#clip-51)"><image xlink:href="../../8CBF9D45-8525-4B89-AD8F-89B4EB6EFC63/assets/0188245E957EEFBAE5108680EFA80732.jpeg" width="720.00" height="576.00" transform="matrix(1.00, 0.00, -0.00, -0.94, 0.0, 540.0)"></image></g></g><path d="M 0.0 314.7 L 0.0 61.7 C 0.0 27.6 27.6 0.0 61.7 0.0 L 308.7 0.0 C 342.8 0.0 370.4 27.6 370.4 61.7 L 370.4 314.7 C 370.4 348.8 342.8 376.4 308.7 376.4 L 61.7 376.4 C 27.6 376.4 0.0 348.8 0.0 314.7 Z M 0.0 314.7 " fill="none" stroke="#1E487D" stroke-width="3.00" stroke-linejoin="round" transform="matrix(1.00, 0.00, 0.00, -1.00, 328.3, 393.3)"></path><path d="M 0.0 319.9 L 0.0 48.1 C 0.0 21.5 21.5 0.0 48.1 0.0 L 240.5 0.0 C 267.1 0.0 288.6 21.5 288.6 48.1 L 288.6 319.9 C 288.6 346.5 267.1 368.0 240.5 368.0 L 48.1 368.0 C 21.5 368.0 0.0 346.5 0.0 319.9 Z M 0.0 319.9 " fill="none" stroke="#1E487D" stroke-width="3.00" stroke-linejoin="round" transform="matrix(1.00, 0.00, 0.00, -1.00, 19.2, 393.3)"></path><text xml:space="preserve" font-family="Helvetica" font-size="30.0" fill="#000000" transform="matrix(1.00, 0.00, -0.00, -1.00, 96.0, 347.0)">B</text><text xml:space="preserve" font-family="Helvetica" font-size="30.0" fill="#000000" transform="matrix(1.00, 0.00, -0.00, -1.00, 116.0, 347.0)">a</text><text xml:space="preserve" font-family="Helvetica" font-size="30.0" fill="#000000" transform="matrix(1.00, 0.00, -0.00, -1.00, 132.7, 347.0)">c</text><text xml:space="preserve" font-family="Helvetica" font-size="30.0" fill="#000000" transform="matrix(1.00, 0.00, -0.00, -1.00, 147.7, 347.0)">k</text><text xml:space="preserve" font-family="Helvetica" font-size="30.0" fill="#000000" transform="matrix(1.00, 0.00, -0.00, -1.00, 162.7, 347.0)">-</text><text xml:space="preserve" font-family="Helvetica" font-size="30.0" fill="#000000" transform="matrix(1.00, 0.00, -0.00, -1.00, 172.7, 347.0)">E</text><text xml:space="preserve" font-family="Helvetica" font-size="30.0" fill="#000000" transform="matrix(1.00, 0.00, -0.00, -1.00, 192.7, 347.0)">n</text><text xml:space="preserve" font-family="Helvetica" font-size="30.0" fill="#000000" transform="matrix(1.00, 0.00, -0.00, -1.00, 209.4, 347.0)">d</text><text xml:space="preserve" font-family="Helvetica" font-size="30.0" fill="#000000" transform="matrix(1.00, 0.00, -0.00, -1.00, 447.0, 347.0)">F</text><text xml:space="preserve" font-family="Helvetica" font-size="30.0" fill="#000000" transform="matrix(1.00, 0.00, -0.00, -1.00, 465.3, 347.0)">r</text><text xml:space="preserve" font-family="Helvetica" font-size="30.0" fill="#000000" transform="matrix(1.00, 0.00, -0.00, -1.00, 475.3, 347.0)">o</text><text xml:space="preserve" font-family="Helvetica" font-size="30.0" fill="#000000" transform="matrix(1.00, 0.00, -0.00, -1.00, 492.0, 347.0)">n</text><text xml:space="preserve" font-family="Helvetica" font-size="30.0" fill="#000000" transform="matrix(1.00, 0.00, -0.00, -1.00, 508.7, 347.0)">t</text><text xml:space="preserve" font-family="Helvetica" font-size="30.0" fill="#000000" transform="matrix(1.00, 0.00, -0.00, -1.00, 517.0, 347.0)">-</text><text xml:space="preserve" font-family="Helvetica" font-size="30.0" fill="#000000" transform="matrix(1.00, 0.00, -0.00, -1.00, 527.0, 347.0)">E</text><text xml:space="preserve" font-family="Helvetica" font-size="30.0" fill="#000000" transform="matrix(1.00, 0.00, -0.00, -1.00, 547.0, 347.0)">n</text><text xml:space="preserve" font-family="Helvetica" font-size="30.0" fill="#000000" transform="matrix(1.00, 0.00, -0.00, -1.00, 563.7, 347.0)">d</text><text xml:space="preserve" font-family="Helvetica" font-size="24.0" fill="#0000FF" transform="matrix(1.00, 0.00, -0.00, -1.00, 72.0, 290.0)">g</text><text xml:space="preserve" font-family="Helvetica" font-size="24.0" fill="#0000FF" transform="matrix(1.00, 0.00, -0.00, -1.00, 85.4, 290.0)">e</text><text xml:space="preserve" font-family="Helvetica" font-size="24.0" fill="#0000FF" transform="matrix(1.00, 0.00, -0.00, -1.00, 98.7, 290.0)">n</text><text xml:space="preserve" font-family="Helvetica" font-size="24.0" fill="#0000FF" transform="matrix(1.00, 0.00, -0.00, -1.00, 112.1, 290.0)">e</text><text xml:space="preserve" font-family="Helvetica" font-size="24.0" fill="#0000FF" transform="matrix(1.00, 0.00, -0.00, -1.00, 125.4, 290.0)">r</text><text xml:space="preserve" font-family="Helvetica" font-size="24.0" fill="#0000FF" transform="matrix(1.00, 0.00, -0.00, -1.00, 133.4, 290.0)">a</text><text xml:space="preserve" font-family="Helvetica" font-size="24.0" fill="#0000FF" transform="matrix(1.00, 0.00, -0.00, -1.00, 146.8, 290.0)">t</text><text xml:space="preserve" font-family="Helvetica" font-size="24.0" fill="#0000FF" transform="matrix(1.00, 0.00, -0.00, -1.00, 153.4, 290.0)">o</text><text xml:space="preserve" font-family="Helvetica" font-size="24.0" fill="#0000FF" transform="matrix(1.00, 0.00, -0.00, -1.00, 166.8, 290.0)">r</text><text xml:space="preserve" font-family="Helvetica" font-size="24.0" fill="#0000FF" transform="matrix(1.00, 0.00, -0.00, -1.00, 174.8, 290.0)">-</text><text xml:space="preserve" font-family="Helvetica" font-size="24.0" fill="#0000FF" transform="matrix(1.00, 0.00, -0.00, -1.00, 182.8, 290.0)">x</text><text xml:space="preserve" font-family="Helvetica" font-size="24.0" fill="#0000FF" transform="matrix(1.00, 0.00, -0.00, -1.00, 194.8, 290.0)">s</text><text xml:space="preserve" font-family="Helvetica" font-size="24.0" fill="#0000FF" transform="matrix(1.00, 0.00, -0.00, -1.00, 206.8, 290.0)">p</text><g><clipPath id="clip-52"><path d="M 71.1 287.0 L 220.1 287.0 L 220.1 290.2 L 71.1 290.2 Z M 71.1 287.0 "></path></clipPath><g clip-path="url(#clip-52)"><path d="M 43.2 32.5 L 191.3 32.5 " fill="none" stroke="#0000FF" stroke-width="1.18" stroke-miterlimit="0.00" transform="matrix(1.00, 0.00, 0.00, -1.00, 28.9, 321.1)"></path></g></g><text xml:space="preserve" font-family="Helvetica" font-size="24.0" fill="#0000FF" transform="matrix(1.00, 0.00, -0.00, -1.00, 72.0, 261.0)">H</text><text xml:space="preserve" font-family="Helvetica" font-size="24.0" fill="#0000FF" transform="matrix(1.00, 0.00, -0.00, -1.00, 89.3, 261.0)">T</text><text xml:space="preserve" font-family="Helvetica" font-size="24.0" fill="#0000FF" transform="matrix(1.00, 0.00, -0.00, -1.00, 104.0, 261.0)">T</text><text xml:space="preserve" font-family="Helvetica" font-size="24.0" fill="#0000FF" transform="matrix(1.00, 0.00, -0.00, -1.00, 118.6, 261.0)">P</text><text xml:space="preserve" font-family="Helvetica" font-size="24.0" fill="#0000FF" transform="matrix(1.00, 0.00, -0.00, -1.00, 134.7, 261.0)">S</text><text xml:space="preserve" font-family="Helvetica" font-size="24.0" fill="#0000FF" transform="matrix(1.00, 0.00, -0.00, -1.00, 150.7, 261.0)">e</text><text xml:space="preserve" font-family="Helvetica" font-size="24.0" fill="#0000FF" transform="matrix(1.00, 0.00, -0.00, -1.00, 164.0, 261.0)">r</text><text xml:space="preserve" font-family="Helvetica" font-size="24.0" fill="#0000FF" transform="matrix(1.00, 0.00, -0.00, -1.00, 172.0, 261.0)">v</text><text xml:space="preserve" font-family="Helvetica" font-size="24.0" fill="#0000FF" transform="matrix(1.00, 0.00, -0.00, -1.00, 184.0, 261.0)">l</text><text xml:space="preserve" font-family="Helvetica" font-size="24.0" fill="#0000FF" transform="matrix(1.00, 0.00, -0.00, -1.00, 189.3, 261.0)">e</text><text xml:space="preserve" font-family="Helvetica" font-size="24.0" fill="#0000FF" transform="matrix(1.00, 0.00, -0.00, -1.00, 202.7, 261.0)">t</text><text xml:space="preserve" font-family="Helvetica" font-size="24.0" fill="#0000FF" transform="matrix(1.00, 0.00, -0.00, -1.00, 209.4, 261.0)">s</text><text xml:space="preserve" font-family="Helvetica" font-size="24.0" fill="#000000" transform="matrix(1.00, 0.00, -0.00, -1.00, 221.4, 261.0)">,</text><text xml:space="preserve" font-family="Helvetica" font-size="24.0" fill="#000000" transform="matrix(1.00, 0.00, -0.00, -1.00, 228.0, 261.0)"> </text><g><clipPath id="clip-53"><path d="M 71.1 258.0 L 221.4 258.0 L 221.4 261.2 L 71.1 261.2 Z M 71.1 258.0 "></path></clipPath><g clip-path="url(#clip-53)"><path d="M 43.2 61.5 L 192.6 61.5 " fill="none" stroke="#0000FF" stroke-width="1.18" stroke-miterlimit="0.00" transform="matrix(1.00, 0.00, 0.00, -1.00, 28.9, 321.1)"></path></g></g><text xml:space="preserve" font-family="Helvetica" font-size="24.0" fill="#0000FF" transform="matrix(1.00, 0.00, -0.00, -1.00, 72.0, 232.0)">x</text><text xml:space="preserve" font-family="Helvetica" font-size="24.0" fill="#0000FF" transform="matrix(1.00, 0.00, -0.00, -1.00, 84.0, 232.0)">e</text><text xml:space="preserve" font-family="Helvetica" font-size="24.0" fill="#0000FF" transform="matrix(1.00, 0.00, -0.00, -1.00, 97.4, 232.0)">:</text><text xml:space="preserve" font-family="Helvetica" font-size="24.0" fill="#0000FF" transform="matrix(1.00, 0.00, -0.00, -1.00, 104.0, 232.0)">r</text><text xml:space="preserve" font-family="Helvetica" font-size="24.0" fill="#0000FF" transform="matrix(1.00, 0.00, -0.00, -1.00, 112.0, 232.0)">e</text><text xml:space="preserve" font-family="Helvetica" font-size="24.0" fill="#0000FF" transform="matrix(1.00, 0.00, -0.00, -1.00, 125.4, 232.0)">s</text><text xml:space="preserve" font-family="Helvetica" font-size="24.0" fill="#0000FF" transform="matrix(1.00, 0.00, -0.00, -1.00, 137.4, 232.0)">t</text><text xml:space="preserve" font-family="Helvetica" font-size="24.0" fill="#0000FF" transform="matrix(1.00, 0.00, -0.00, -1.00, 144.0, 232.0)">S</text><text xml:space="preserve" font-family="Helvetica" font-size="24.0" fill="#0000FF" transform="matrix(1.00, 0.00, -0.00, -1.00, 160.0, 232.0)">e</text><text xml:space="preserve" font-family="Helvetica" font-size="24.0" fill="#0000FF" transform="matrix(1.00, 0.00, -0.00, -1.00, 173.4, 232.0)">r</text><text xml:space="preserve" font-family="Helvetica" font-size="24.0" fill="#0000FF" transform="matrix(1.00, 0.00, -0.00, -1.00, 181.4, 232.0)">v</text><text xml:space="preserve" font-family="Helvetica" font-size="24.0" fill="#0000FF" transform="matrix(1.00, 0.00, -0.00, -1.00, 193.4, 232.0)">i</text><text xml:space="preserve" font-family="Helvetica" font-size="24.0" fill="#0000FF" transform="matrix(1.00, 0.00, -0.00, -1.00, 198.7, 232.0)">c</text><text xml:space="preserve" font-family="Helvetica" font-size="24.0" fill="#0000FF" transform="matrix(1.00, 0.00, -0.00, -1.00, 210.7, 232.0)">e</text><g><clipPath id="clip-54"><path d="M 71.1 229.0 L 224.1 229.0 L 224.1 232.2 L 71.1 232.2 Z M 71.1 229.0 "></path></clipPath><g clip-path="url(#clip-54)"><path d="M 43.2 90.5 L 195.2 90.5 " fill="none" stroke="#0000FF" stroke-width="1.18" stroke-miterlimit="0.00" transform="matrix(1.00, 0.00, 0.00, -1.00, 28.9, 321.1)"></path></g></g><text xml:space="preserve" font-family="Helvetica" font-size="24.0" fill="#0000FF" transform="matrix(1.00, 0.00, -0.00, -1.00, 382.0, 290.0)">g</text><text xml:space="preserve" font-family="Helvetica" font-size="24.0" fill="#0000FF" transform="matrix(1.00, 0.00, -0.00, -1.00, 395.4, 290.0)">e</text><text xml:space="preserve" font-family="Helvetica" font-size="24.0" fill="#0000FF" transform="matrix(1.00, 0.00, -0.00, -1.00, 408.7, 290.0)">n</text><text xml:space="preserve" font-family="Helvetica" font-size="24.0" fill="#0000FF" transform="matrix(1.00, 0.00, -0.00, -1.00, 422.1, 290.0)">e</text><text xml:space="preserve" font-family="Helvetica" font-size="24.0" fill="#0000FF" transform="matrix(1.00, 0.00, -0.00, -1.00, 435.4, 290.0)">r</text><text xml:space="preserve" font-family="Helvetica" font-size="24.0" fill="#0000FF" transform="matrix(1.00, 0.00, -0.00, -1.00, 443.4, 290.0)">a</text><text xml:space="preserve" font-family="Helvetica" font-size="24.0" fill="#0000FF" transform="matrix(1.00, 0.00, -0.00, -1.00, 456.8, 290.0)">t</text><text xml:space="preserve" font-family="Helvetica" font-size="24.0" fill="#0000FF" transform="matrix(1.00, 0.00, -0.00, -1.00, 463.4, 290.0)">o</text><text xml:space="preserve" font-family="Helvetica" font-size="24.0" fill="#0000FF" transform="matrix(1.00, 0.00, -0.00, -1.00, 476.8, 290.0)">r</text><text xml:space="preserve" font-family="Helvetica" font-size="24.0" fill="#0000FF" transform="matrix(1.00, 0.00, -0.00, -1.00, 484.8, 290.0)">-</text><text xml:space="preserve" font-family="Helvetica" font-size="24.0" fill="#0000FF" transform="matrix(1.00, 0.00, -0.00, -1.00, 492.8, 290.0)">w</text><text xml:space="preserve" font-family="Helvetica" font-size="24.0" fill="#0000FF" transform="matrix(1.00, 0.00, -0.00, -1.00, 510.1, 290.0)">e</text><text xml:space="preserve" font-family="Helvetica" font-size="24.0" fill="#0000FF" transform="matrix(1.00, 0.00, -0.00, -1.00, 523.4, 290.0)">b</text><text xml:space="preserve" font-family="Helvetica" font-size="24.0" fill="#0000FF" transform="matrix(1.00, 0.00, -0.00, -1.00, 536.8, 290.0)">a</text><text xml:space="preserve" font-family="Helvetica" font-size="24.0" fill="#0000FF" transform="matrix(1.00, 0.00, -0.00, -1.00, 550.1, 290.0)">p</text><text xml:space="preserve" font-family="Helvetica" font-size="24.0" fill="#0000FF" transform="matrix(1.00, 0.00, -0.00, -1.00, 563.5, 290.0)">p</text><g><clipPath id="clip-55"><path d="M 381.4 287.0 L 577.2 287.0 L 577.2 290.2 L 381.4 290.2 Z M 381.4 287.0 "></path></clipPath><g clip-path="url(#clip-55)"><path d="M 43.2 32.5 L 238.0 32.5 " fill="none" stroke="#0000FF" stroke-width="1.18" stroke-miterlimit="0.00" transform="matrix(1.00, 0.00, 0.00, -1.00, 339.2, 321.1)"></path></g></g><text xml:space="preserve" font-family="Helvetica" font-size="24.0" fill="#0000FF" transform="matrix(1.00, 0.00, -0.00, -1.00, 382.0, 261.0)">g</text><text xml:space="preserve" font-family="Helvetica" font-size="24.0" fill="#0000FF" transform="matrix(1.00, 0.00, -0.00, -1.00, 395.4, 261.0)">e</text><text xml:space="preserve" font-family="Helvetica" font-size="24.0" fill="#0000FF" transform="matrix(1.00, 0.00, -0.00, -1.00, 408.7, 261.0)">n</text><text xml:space="preserve" font-family="Helvetica" font-size="24.0" fill="#0000FF" transform="matrix(1.00, 0.00, -0.00, -1.00, 422.1, 261.0)">e</text><text xml:space="preserve" font-family="Helvetica" font-size="24.0" fill="#0000FF" transform="matrix(1.00, 0.00, -0.00, -1.00, 435.4, 261.0)">r</text><text xml:space="preserve" font-family="Helvetica" font-size="24.0" fill="#0000FF" transform="matrix(1.00, 0.00, -0.00, -1.00, 443.4, 261.0)">a</text><text xml:space="preserve" font-family="Helvetica" font-size="24.0" fill="#0000FF" transform="matrix(1.00, 0.00, -0.00, -1.00, 456.8, 261.0)">t</text><text xml:space="preserve" font-family="Helvetica" font-size="24.0" fill="#0000FF" transform="matrix(1.00, 0.00, -0.00, -1.00, 463.4, 261.0)">o</text><text xml:space="preserve" font-family="Helvetica" font-size="24.0" fill="#0000FF" transform="matrix(1.00, 0.00, -0.00, -1.00, 476.8, 261.0)">r</text><text xml:space="preserve" font-family="Helvetica" font-size="24.0" fill="#0000FF" transform="matrix(1.00, 0.00, -0.00, -1.00, 484.8, 261.0)">-</text><text xml:space="preserve" font-family="Helvetica" font-size="24.0" fill="#0000FF" transform="matrix(1.00, 0.00, -0.00, -1.00, 492.8, 261.0)">a</text><text xml:space="preserve" font-family="Helvetica" font-size="24.0" fill="#0000FF" transform="matrix(1.00, 0.00, -0.00, -1.00, 506.1, 261.0)">n</text><text xml:space="preserve" font-family="Helvetica" font-size="24.0" fill="#0000FF" transform="matrix(1.00, 0.00, -0.00, -1.00, 519.5, 261.0)">g</text><text xml:space="preserve" font-family="Helvetica" font-size="24.0" fill="#0000FF" transform="matrix(1.00, 0.00, -0.00, -1.00, 532.8, 261.0)">u</text><text xml:space="preserve" font-family="Helvetica" font-size="24.0" fill="#0000FF" transform="matrix(1.00, 0.00, -0.00, -1.00, 546.2, 261.0)">l</text><text xml:space="preserve" font-family="Helvetica" font-size="24.0" fill="#0000FF" transform="matrix(1.00, 0.00, -0.00, -1.00, 551.5, 261.0)">a</text><text xml:space="preserve" font-family="Helvetica" font-size="24.0" fill="#0000FF" transform="matrix(1.00, 0.00, -0.00, -1.00, 564.9, 261.0)">r</text><g><clipPath id="clip-56"><path d="M 381.4 258.0 L 573.1 258.0 L 573.1 261.2 L 381.4 261.2 Z M 381.4 258.0 "></path></clipPath><g clip-path="url(#clip-56)"><path d="M 43.2 61.5 L 234.0 61.5 " fill="none" stroke="#0000FF" stroke-width="1.18" stroke-miterlimit="0.00" transform="matrix(1.00, 0.00, 0.00, -1.00, 339.2, 321.1)"></path></g></g><text xml:space="preserve" font-family="Helvetica" font-size="24.0" fill="#0000FF" transform="matrix(1.00, 0.00, -0.00, -1.00, 382.0, 232.0)">T</text><text xml:space="preserve" font-family="Helvetica" font-size="24.0" fill="#0000FF" transform="matrix(1.00, 0.00, -0.00, -1.00, 395.3, 232.0)">y</text><text xml:space="preserve" font-family="Helvetica" font-size="24.0" fill="#0000FF" transform="matrix(1.00, 0.00, -0.00, -1.00, 407.3, 232.0)">p</text><text xml:space="preserve" font-family="Helvetica" font-size="24.0" fill="#0000FF" transform="matrix(1.00, 0.00, -0.00, -1.00, 420.7, 232.0)">e</text><text xml:space="preserve" font-family="Helvetica" font-size="24.0" fill="#0000FF" transform="matrix(1.00, 0.00, -0.00, -1.00, 434.0, 232.0)">S</text><text xml:space="preserve" font-family="Helvetica" font-size="24.0" fill="#0000FF" transform="matrix(1.00, 0.00, -0.00, -1.00, 450.1, 232.0)">c</text><text xml:space="preserve" font-family="Helvetica" font-size="24.0" fill="#0000FF" transform="matrix(1.00, 0.00, -0.00, -1.00, 462.1, 232.0)">r</text><text xml:space="preserve" font-family="Helvetica" font-size="24.0" fill="#0000FF" transform="matrix(1.00, 0.00, -0.00, -1.00, 470.0, 232.0)">i</text><text xml:space="preserve" font-family="Helvetica" font-size="24.0" fill="#0000FF" transform="matrix(1.00, 0.00, -0.00, -1.00, 475.4, 232.0)">p</text><text xml:space="preserve" font-family="Helvetica" font-size="24.0" fill="#0000FF" transform="matrix(1.00, 0.00, -0.00, -1.00, 488.7, 232.0)">t</text><text xml:space="preserve" font-family="Helvetica" font-size="24.0" fill="#000000" transform="matrix(1.00, 0.00, -0.00, -1.00, 495.4, 232.0)"> </text><text xml:space="preserve" font-family="Helvetica" font-size="24.0" fill="#000000" transform="matrix(1.00, 0.00, -0.00, -1.00, 502.1, 232.0)">s</text><text xml:space="preserve" font-family="Helvetica" font-size="24.0" fill="#000000" transform="matrix(1.00, 0.00, -0.00, -1.00, 514.1, 232.0)">e</text><text xml:space="preserve" font-family="Helvetica" font-size="24.0" fill="#000000" transform="matrix(1.00, 0.00, -0.00, -1.00, 527.4, 232.0)">t</text><text xml:space="preserve" font-family="Helvetica" font-size="24.0" fill="#000000" transform="matrix(1.00, 0.00, -0.00, -1.00, 534.1, 232.0)">u</text><text xml:space="preserve" font-family="Helvetica" font-size="24.0" fill="#000000" transform="matrix(1.00, 0.00, -0.00, -1.00, 547.4, 232.0)">p</text><text xml:space="preserve" font-family="Helvetica" font-size="24.0" fill="#000000" transform="matrix(1.00, 0.00, -0.00, -1.00, 560.8, 232.0)"> </text><g><clipPath id="clip-57"><path d="M 381.4 229.0 L 495.7 229.0 L 495.7 232.2 L 381.4 232.2 Z M 381.4 229.0 "></path></clipPath><g clip-path="url(#clip-57)"><path d="M 43.2 90.5 L 156.6 90.5 " fill="none" stroke="#0000FF" stroke-width="1.18" stroke-miterlimit="0.00" transform="matrix(1.00, 0.00, 0.00, -1.00, 339.2, 321.1)"></path></g></g><text xml:space="preserve" font-family="Helvetica" font-size="24.0" fill="#000000" transform="matrix(1.00, 0.00, -0.00, -1.00, 382.0, 203.0)">(</text><text xml:space="preserve" font-family="Helvetica" font-size="24.0" fill="#000000" transform="matrix(1.00, 0.00, -0.00, -1.00, 390.0, 203.0)">s</text><text xml:space="preserve" font-family="Helvetica" font-size="24.0" fill="#000000" transform="matrix(1.00, 0.00, -0.00, -1.00, 402.0, 203.0)">i</text><text xml:space="preserve" font-family="Helvetica" font-size="24.0" fill="#000000" transform="matrix(1.00, 0.00, -0.00, -1.00, 407.3, 203.0)">m</text><text xml:space="preserve" font-family="Helvetica" font-size="24.0" fill="#000000" transform="matrix(1.00, 0.00, -0.00, -1.00, 427.3, 203.0)">p</text><text xml:space="preserve" font-family="Helvetica" font-size="24.0" fill="#000000" transform="matrix(1.00, 0.00, -0.00, -1.00, 440.7, 203.0)">l</text><text xml:space="preserve" font-family="Helvetica" font-size="24.0" fill="#000000" transform="matrix(1.00, 0.00, -0.00, -1.00, 446.0, 203.0)">i</text><text xml:space="preserve" font-family="Helvetica" font-size="24.0" fill="#000000" transform="matrix(1.00, 0.00, -0.00, -1.00, 451.3, 203.0)">f</text><text xml:space="preserve" font-family="Helvetica" font-size="24.0" fill="#000000" transform="matrix(1.00, 0.00, -0.00, -1.00, 458.0, 203.0)">i</text><text xml:space="preserve" font-family="Helvetica" font-size="24.0" fill="#000000" transform="matrix(1.00, 0.00, -0.00, -1.00, 463.3, 203.0)">e</text><text xml:space="preserve" font-family="Helvetica" font-size="24.0" fill="#000000" transform="matrix(1.00, 0.00, -0.00, -1.00, 476.7, 203.0)">d</text><text xml:space="preserve" font-family="Helvetica" font-size="24.0" fill="#000000" transform="matrix(1.00, 0.00, -0.00, -1.00, 490.1, 203.0)">,</text><text xml:space="preserve" font-family="Helvetica" font-size="24.0" fill="#000000" transform="matrix(1.00, 0.00, -0.00, -1.00, 496.7, 203.0)"> </text><text xml:space="preserve" font-family="Helvetica" font-size="24.0" fill="#000000" transform="matrix(1.00, 0.00, -0.00, -1.00, 503.4, 203.0)">D</text><text xml:space="preserve" font-family="Helvetica" font-size="24.0" fill="#000000" transform="matrix(1.00, 0.00, -0.00, -1.00, 520.7, 203.0)">I</text><text xml:space="preserve" font-family="Helvetica" font-size="24.0" fill="#000000" transform="matrix(1.00, 0.00, -0.00, -1.00, 527.4, 203.0)">Y</text><text xml:space="preserve" font-family="Helvetica" font-size="24.0" fill="#000000" transform="matrix(1.00, 0.00, -0.00, -1.00, 543.4, 203.0)">)</text><text xml:space="preserve" font-family="Helvetica" font-size="24.0" fill="#0000FF" transform="matrix(1.00, 0.00, -0.00, -1.00, 382.0, 174.0)">a</text><text xml:space="preserve" font-family="Helvetica" font-size="24.0" fill="#0000FF" transform="matrix(1.00, 0.00, -0.00, -1.00, 395.4, 174.0)">n</text><text xml:space="preserve" font-family="Helvetica" font-size="24.0" fill="#0000FF" transform="matrix(1.00, 0.00, -0.00, -1.00, 408.7, 174.0)">g</text><text xml:space="preserve" font-family="Helvetica" font-size="24.0" fill="#0000FF" transform="matrix(1.00, 0.00, -0.00, -1.00, 422.1, 174.0)">u</text><text xml:space="preserve" font-family="Helvetica" font-size="24.0" fill="#0000FF" transform="matrix(1.00, 0.00, -0.00, -1.00, 435.4, 174.0)">l</text><text xml:space="preserve" font-family="Helvetica" font-size="24.0" fill="#0000FF" transform="matrix(1.00, 0.00, -0.00, -1.00, 440.7, 174.0)">a</text><text xml:space="preserve" font-family="Helvetica" font-size="24.0" fill="#0000FF" transform="matrix(1.00, 0.00, -0.00, -1.00, 454.1, 174.0)">r</text><text xml:space="preserve" font-family="Helvetica" font-size="24.0" fill="#0000FF" transform="matrix(1.00, 0.00, -0.00, -1.00, 462.1, 174.0)">-</text><text xml:space="preserve" font-family="Helvetica" font-size="24.0" fill="#0000FF" transform="matrix(1.00, 0.00, -0.00, -1.00, 470.1, 174.0)">c</text><text xml:space="preserve" font-family="Helvetica" font-size="24.0" fill="#0000FF" transform="matrix(1.00, 0.00, -0.00, -1.00, 482.1, 174.0)">l</text><text xml:space="preserve" font-family="Helvetica" font-size="24.0" fill="#0000FF" transform="matrix(1.00, 0.00, -0.00, -1.00, 487.4, 174.0)">i</text><text xml:space="preserve" font-family="Helvetica" font-size="24.0" fill="#000000" transform="matrix(1.00, 0.00, -0.00, -1.00, 492.7, 174.0)"> </text><text xml:space="preserve" font-family="Helvetica" font-size="24.0" fill="#000000" transform="matrix(1.00, 0.00, -0.00, -1.00, 499.4, 174.0)">(</text><text xml:space="preserve" font-family="Helvetica" font-size="24.0" fill="#000000" transform="matrix(1.00, 0.00, -0.00, -1.00, 507.4, 174.0)">A</text><text xml:space="preserve" font-family="Helvetica" font-size="24.0" fill="#000000" transform="matrix(1.00, 0.00, -0.00, -1.00, 523.4, 174.0)">n</text><text xml:space="preserve" font-family="Helvetica" font-size="24.0" fill="#000000" transform="matrix(1.00, 0.00, -0.00, -1.00, 536.7, 174.0)">g</text><text xml:space="preserve" font-family="Helvetica" font-size="24.0" fill="#000000" transform="matrix(1.00, 0.00, -0.00, -1.00, 550.1, 174.0)">u</text><text xml:space="preserve" font-family="Helvetica" font-size="24.0" fill="#000000" transform="matrix(1.00, 0.00, -0.00, -1.00, 563.4, 174.0)">l</text><text xml:space="preserve" font-family="Helvetica" font-size="24.0" fill="#000000" transform="matrix(1.00, 0.00, -0.00, -1.00, 568.8, 174.0)">a</text><text xml:space="preserve" font-family="Helvetica" font-size="24.0" fill="#000000" transform="matrix(1.00, 0.00, -0.00, -1.00, 582.1, 174.0)">r</text><text xml:space="preserve" font-family="Helvetica" font-size="24.0" fill="#000000" transform="matrix(1.00, 0.00, -0.00, -1.00, 590.1, 174.0)"> </text><text xml:space="preserve" font-family="Helvetica" font-size="24.0" fill="#000000" transform="matrix(1.00, 0.00, -0.00, -1.00, 596.8, 174.0)">2</text><text xml:space="preserve" font-family="Helvetica" font-size="24.0" fill="#000000" transform="matrix(1.00, 0.00, -0.00, -1.00, 610.1, 174.0)">)</text><g><clipPath id="clip-58"><path d="M 381.4 171.0 L 493.1 171.0 L 493.1 174.2 L 381.4 174.2 Z M 381.4 171.0 "></path></clipPath><g clip-path="url(#clip-58)"><path d="M 43.2 148.5 L 153.9 148.5 " fill="none" stroke="#0000FF" stroke-width="1.18" stroke-miterlimit="0.00" transform="matrix(1.00, 0.00, 0.00, -1.00, 339.2, 321.1)"></path></g></g><text xml:space="preserve" font-family="Helvetica" font-size="24.0" fill="#0000FF" transform="matrix(1.00, 0.00, -0.00, -1.00, 382.0, 145.0)">v</text><text xml:space="preserve" font-family="Helvetica" font-size="24.0" fill="#0000FF" transform="matrix(1.00, 0.00, -0.00, -1.00, 394.0, 145.0)">u</text><text xml:space="preserve" font-family="Helvetica" font-size="24.0" fill="#0000FF" transform="matrix(1.00, 0.00, -0.00, -1.00, 407.4, 145.0)">e</text><text xml:space="preserve" font-family="Helvetica" font-size="24.0" fill="#0000FF" transform="matrix(1.00, 0.00, -0.00, -1.00, 420.7, 145.0)">-</text><text xml:space="preserve" font-family="Helvetica" font-size="24.0" fill="#0000FF" transform="matrix(1.00, 0.00, -0.00, -1.00, 428.7, 145.0)">c</text><text xml:space="preserve" font-family="Helvetica" font-size="24.0" fill="#0000FF" transform="matrix(1.00, 0.00, -0.00, -1.00, 440.7, 145.0)">l</text><text xml:space="preserve" font-family="Helvetica" font-size="24.0" fill="#0000FF" transform="matrix(1.00, 0.00, -0.00, -1.00, 446.0, 145.0)">i</text><text xml:space="preserve" font-family="Helvetica" font-size="24.0" fill="#000000" transform="matrix(1.00, 0.00, -0.00, -1.00, 451.4, 145.0)"> </text><text xml:space="preserve" font-family="Helvetica" font-size="24.0" fill="#000000" transform="matrix(1.00, 0.00, -0.00, -1.00, 458.0, 145.0)">(</text><text xml:space="preserve" font-family="Helvetica" font-size="24.0" fill="#0000FF" transform="matrix(1.00, 0.00, -0.00, -1.00, 466.0, 145.0)">t</text><text xml:space="preserve" font-family="Helvetica" font-size="24.0" fill="#0000FF" transform="matrix(1.00, 0.00, -0.00, -1.00, 472.7, 145.0)">e</text><text xml:space="preserve" font-family="Helvetica" font-size="24.0" fill="#0000FF" transform="matrix(1.00, 0.00, -0.00, -1.00, 486.0, 145.0)">m</text><text xml:space="preserve" font-family="Helvetica" font-size="24.0" fill="#0000FF" transform="matrix(1.00, 0.00, -0.00, -1.00, 506.0, 145.0)">p</text><text xml:space="preserve" font-family="Helvetica" font-size="24.0" fill="#0000FF" transform="matrix(1.00, 0.00, -0.00, -1.00, 519.4, 145.0)">l</text><text xml:space="preserve" font-family="Helvetica" font-size="24.0" fill="#0000FF" transform="matrix(1.00, 0.00, -0.00, -1.00, 524.7, 145.0)">a</text><text xml:space="preserve" font-family="Helvetica" font-size="24.0" fill="#0000FF" transform="matrix(1.00, 0.00, -0.00, -1.00, 538.1, 145.0)">t</text><text xml:space="preserve" font-family="Helvetica" font-size="24.0" fill="#0000FF" transform="matrix(1.00, 0.00, -0.00, -1.00, 544.7, 145.0)">e</text><text xml:space="preserve" font-family="Helvetica" font-size="24.0" fill="#0000FF" transform="matrix(1.00, 0.00, -0.00, -1.00, 558.1, 145.0)">s</text><text xml:space="preserve" font-family="Helvetica" font-size="24.0" fill="#000000" transform="matrix(1.00, 0.00, -0.00, -1.00, 570.1, 145.0)">,</text><text xml:space="preserve" font-family="Helvetica" font-size="24.0" fill="#000000" transform="matrix(1.00, 0.00, -0.00, -1.00, 576.7, 145.0)"> </text><text xml:space="preserve" font-family="Helvetica" font-size="24.0" fill="#000000" transform="matrix(1.00, 0.00, -0.00, -1.00, 583.4, 145.0)">w</text><text xml:space="preserve" font-family="Helvetica" font-size="24.0" fill="#000000" transform="matrix(1.00, 0.00, -0.00, -1.00, 600.7, 145.0)">/</text><text xml:space="preserve" font-family="Helvetica" font-size="24.0" fill="#000000" transform="matrix(1.00, 0.00, -0.00, -1.00, 607.4, 145.0)"> </text><g><clipPath id="clip-59"><path d="M 381.4 142.0 L 451.7 142.0 L 451.7 145.2 L 381.4 145.2 Z M 381.4 142.0 "></path></clipPath><g clip-path="url(#clip-59)"><path d="M 43.2 177.5 L 112.6 177.5 " fill="none" stroke="#0000FF" stroke-width="1.18" stroke-miterlimit="0.00" transform="matrix(1.00, 0.00, 0.00, -1.00, 339.2, 321.1)"></path></g></g><g><clipPath id="clip-60"><path d="M 465.4 142.0 L 570.4 142.0 L 570.4 145.2 L 465.4 145.2 Z M 465.4 142.0 "></path></clipPath><g clip-path="url(#clip-60)"><path d="M 127.2 177.5 L 231.3 177.5 " fill="none" stroke="#0000FF" stroke-width="1.18" stroke-miterlimit="0.00" transform="matrix(1.00, 0.00, 0.00, -1.00, 339.2, 321.1)"></path></g></g><text xml:space="preserve" font-family="Helvetica" font-size="24.0" fill="#0000FF" transform="matrix(1.00, 0.00, -0.00, -1.00, 382.0, 116.0)">b</text><text xml:space="preserve" font-family="Helvetica" font-size="24.0" fill="#0000FF" transform="matrix(1.00, 0.00, -0.00, -1.00, 395.4, 116.0)">r</text><text xml:space="preserve" font-family="Helvetica" font-size="24.0" fill="#0000FF" transform="matrix(1.00, 0.00, -0.00, -1.00, 403.3, 116.0)">o</text><text xml:space="preserve" font-family="Helvetica" font-size="24.0" fill="#0000FF" transform="matrix(1.00, 0.00, -0.00, -1.00, 416.7, 116.0)">w</text><text xml:space="preserve" font-family="Helvetica" font-size="24.0" fill="#0000FF" transform="matrix(1.00, 0.00, -0.00, -1.00, 434.0, 116.0)">s</text><text xml:space="preserve" font-family="Helvetica" font-size="24.0" fill="#0000FF" transform="matrix(1.00, 0.00, -0.00, -1.00, 446.0, 116.0)">e</text><text xml:space="preserve" font-family="Helvetica" font-size="24.0" fill="#0000FF" transform="matrix(1.00, 0.00, -0.00, -1.00, 459.4, 116.0)">r</text><text xml:space="preserve" font-family="Helvetica" font-size="24.0" fill="#0000FF" transform="matrix(1.00, 0.00, -0.00, -1.00, 467.4, 116.0)">i</text><text xml:space="preserve" font-family="Helvetica" font-size="24.0" fill="#0000FF" transform="matrix(1.00, 0.00, -0.00, -1.00, 472.7, 116.0)">f</text><text xml:space="preserve" font-family="Helvetica" font-size="24.0" fill="#0000FF" transform="matrix(1.00, 0.00, -0.00, -1.00, 479.4, 116.0)">y</text><text xml:space="preserve" font-family="Helvetica" font-size="24.0" fill="#000000" transform="matrix(1.00, 0.00, -0.00, -1.00, 491.4, 116.0)"> </text><text xml:space="preserve" font-family="Helvetica" font-size="24.0" fill="#000000" transform="matrix(1.00, 0.00, -0.00, -1.00, 498.0, 116.0)">o</text><text xml:space="preserve" font-family="Helvetica" font-size="24.0" fill="#000000" transform="matrix(1.00, 0.00, -0.00, -1.00, 511.4, 116.0)">r</text><text xml:space="preserve" font-family="Helvetica" font-size="24.0" fill="#000000" transform="matrix(1.00, 0.00, -0.00, -1.00, 519.4, 116.0)"> </text><text xml:space="preserve" font-family="Helvetica" font-size="24.0" fill="#0000FF" transform="matrix(1.00, 0.00, -0.00, -1.00, 526.0, 116.0)">w</text><text xml:space="preserve" font-family="Helvetica" font-size="24.0" fill="#0000FF" transform="matrix(1.00, 0.00, -0.00, -1.00, 543.4, 116.0)">e</text><text xml:space="preserve" font-family="Helvetica" font-size="24.0" fill="#0000FF" transform="matrix(1.00, 0.00, -0.00, -1.00, 556.7, 116.0)">b</text><text xml:space="preserve" font-family="Helvetica" font-size="24.0" fill="#0000FF" transform="matrix(1.00, 0.00, -0.00, -1.00, 570.1, 116.0)">p</text><text xml:space="preserve" font-family="Helvetica" font-size="24.0" fill="#0000FF" transform="matrix(1.00, 0.00, -0.00, -1.00, 583.4, 116.0)">a</text><text xml:space="preserve" font-family="Helvetica" font-size="24.0" fill="#0000FF" transform="matrix(1.00, 0.00, -0.00, -1.00, 596.8, 116.0)">c</text><text xml:space="preserve" font-family="Helvetica" font-size="24.0" fill="#0000FF" transform="matrix(1.00, 0.00, -0.00, -1.00, 608.8, 116.0)">k</text><text xml:space="preserve" font-family="Helvetica" font-size="24.0" fill="#000000" transform="matrix(1.00, 0.00, -0.00, -1.00, 620.8, 116.0)">)</text><g><clipPath id="clip-61"><path d="M 381.4 113.0 L 491.7 113.0 L 491.7 116.2 L 381.4 116.2 Z M 381.4 113.0 "></path></clipPath><g clip-path="url(#clip-61)"><path d="M 43.2 206.5 L 152.6 206.5 " fill="none" stroke="#0000FF" stroke-width="1.18" stroke-miterlimit="0.00" transform="matrix(1.00, 0.00, 0.00, -1.00, 339.2, 321.1)"></path></g></g><g><clipPath id="clip-62"><path d="M 525.4 113.0 L 621.1 113.0 L 621.1 116.2 L 525.4 116.2 Z M 525.4 113.0 "></path></clipPath><g clip-path="url(#clip-62)"><path d="M 187.2 206.5 L 282.0 206.5 " fill="none" stroke="#0000FF" stroke-width="1.18" stroke-miterlimit="0.00" transform="matrix(1.00, 0.00, 0.00, -1.00, 339.2, 321.1)"></path></g></g><text xml:space="preserve" font-family="TrebuchetMS" font-size="36.0" fill="#000000" transform="matrix(1.00, 0.00, -0.00, -1.00, 26.0, 431.0)">C</text><text xml:space="preserve" font-family="TrebuchetMS" font-size="36.0" fill="#000000" transform="matrix(1.00, 0.00, -0.00, -1.00, 47.5, 431.0)">h</text><text xml:space="preserve" font-family="TrebuchetMS" font-size="36.0" fill="#000000" transform="matrix(1.00, 0.00, -0.00, -1.00, 67.2, 431.0)">o</text><text xml:space="preserve" font-family="TrebuchetMS" font-size="36.0" fill="#000000" transform="matrix(1.00, 0.00, -0.00, -1.00, 86.5, 431.0)">o</text><text xml:space="preserve" font-family="TrebuchetMS" font-size="36.0" fill="#000000" transform="matrix(1.00, 0.00, -0.00, -1.00, 105.8, 431.0)">s</text><text xml:space="preserve" font-family="TrebuchetMS" font-size="36.0" fill="#000000" transform="matrix(1.00, 0.00, -0.00, -1.00, 120.4, 431.0)">e</text><text xml:space="preserve" font-family="TrebuchetMS" font-size="36.0" fill="#000000" transform="matrix(1.00, 0.00, -0.00, -1.00, 140.0, 431.0)"> </text><text xml:space="preserve" font-family="TrebuchetMS" font-size="36.0" fill="#000000" transform="matrix(1.00, 0.00, -0.00, -1.00, 150.2, 431.0)">Y</text><text xml:space="preserve" font-family="TrebuchetMS" font-size="36.0" fill="#000000" transform="matrix(1.00, 0.00, -0.00, -1.00, 166.6, 431.0)">o</text><text xml:space="preserve" font-family="TrebuchetMS" font-size="36.0" fill="#000000" transform="matrix(1.00, 0.00, -0.00, -1.00, 185.9, 431.0)">u</text><text xml:space="preserve" font-family="TrebuchetMS" font-size="36.0" fill="#000000" transform="matrix(1.00, 0.00, -0.00, -1.00, 205.6, 431.0)">r</text><text xml:space="preserve" font-family="TrebuchetMS" font-size="36.0" fill="#000000" transform="matrix(1.00, 0.00, -0.00, -1.00, 219.5, 431.0)"> </text><text xml:space="preserve" font-family="TrebuchetMS" font-size="36.0" fill="#000000" transform="matrix(1.00, 0.00, -0.00, -1.00, 230.4, 431.0)">O</text><text xml:space="preserve" font-family="TrebuchetMS" font-size="36.0" fill="#000000" transform="matrix(1.00, 0.00, -0.00, -1.00, 254.7, 431.0)">w</text><text xml:space="preserve" font-family="TrebuchetMS" font-size="36.0" fill="#000000" transform="matrix(1.00, 0.00, -0.00, -1.00, 281.5, 431.0)">n</text><text xml:space="preserve" font-family="TrebuchetMS" font-size="36.0" fill="#000000" transform="matrix(1.00, 0.00, -0.00, -1.00, 301.1, 431.0)"> </text><text xml:space="preserve" font-family="TrebuchetMS" font-size="36.0" fill="#000000" transform="matrix(1.00, 0.00, -0.00, -1.00, 310.0, 431.0)">A</text><text xml:space="preserve" font-family="TrebuchetMS" font-size="36.0" fill="#000000" transform="matrix(1.00, 0.00, -0.00, -1.00, 331.2, 431.0)">d</text><text xml:space="preserve" font-family="TrebuchetMS" font-size="36.0" fill="#000000" transform="matrix(1.00, 0.00, -0.00, -1.00, 351.3, 431.0)">v</text><text xml:space="preserve" font-family="TrebuchetMS" font-size="36.0" fill="#000000" transform="matrix(1.00, 0.00, -0.00, -1.00, 368.9, 431.0)">e</text><text xml:space="preserve" font-family="TrebuchetMS" font-size="36.0" fill="#000000" transform="matrix(1.00, 0.00, -0.00, -1.00, 388.6, 431.0)">n</text><text xml:space="preserve" font-family="TrebuchetMS" font-size="36.0" fill="#000000" transform="matrix(1.00, 0.00, -0.00, -1.00, 408.2, 431.0)">t</text><text xml:space="preserve" font-family="TrebuchetMS" font-size="36.0" fill="#000000" transform="matrix(1.00, 0.00, -0.00, -1.00, 422.5, 431.0)">u</text><text xml:space="preserve" font-family="TrebuchetMS" font-size="36.0" fill="#000000" transform="matrix(1.00, 0.00, -0.00, -1.00, 442.2, 431.0)">r</text><text xml:space="preserve" font-family="TrebuchetMS" font-size="36.0" fill="#000000" transform="matrix(1.00, 0.00, -0.00, -1.00, 456.2, 431.0)">e</text><text xml:space="preserve" font-family="TrebuchetMS" font-size="36.0" fill="#000000" transform="matrix(1.00, 0.00, -0.00, -1.00, 475.8, 431.0)">!</text></g></svg>