<?xml version="1.0" encoding="UTF-8" standalone="no"?><svg xmlns="http://www.w3.org/2000/svg" xmlns:xlink="http://www.w3.org/1999/xlink" clip-rule="evenodd" stroke-miterlimit="4.00" viewBox="0 0 720 540"><desc>SVG generated by Keynote</desc><defs></defs><g transform="matrix(1.00, 0.00, -0.00, -1.00, 0.0, 540.0)"><g><clipPath id="clip-26"><path d="M 0.0 540.0 L 720.0 540.0 L 720.0 0.0 L 0.0 0.0 Z M 0.0 540.0 "></path></clipPath><g clip-path="url(#clip-26)"><image xlink:href="../../8CBF9D45-8525-4B89-AD8F-89B4EB6EFC63/assets/0188245E957EEFBAE5108680EFA80732.jpeg" width="720.00" height="576.00" transform="matrix(1.00, 0.00, -0.00, -0.94, 0.0, 540.0)"></image></g></g><text xml:space="preserve" font-family="ArialMT" font-size="30.0" fill="#000000" transform="matrix(1.00, 0.00, -0.00, -1.00, 21.6, 376.7)">•</text><text xml:space="preserve" font-family="TrebuchetMS" font-size="30.0" fill="#000000" transform="matrix(1.00, 0.00, -0.00, -1.00, 32.0, 376.0)">y</text><text xml:space="preserve" font-family="TrebuchetMS" font-size="30.0" fill="#000000" transform="matrix(1.00, 0.00, -0.00, -1.00, 46.8, 376.0)">o</text><text xml:space="preserve" font-family="TrebuchetMS" font-size="30.0" fill="#000000" transform="matrix(1.00, 0.00, -0.00, -1.00, 62.9, 376.0)">u</text><text xml:space="preserve" font-family="TrebuchetMS" font-size="30.0" fill="#000000" transform="matrix(1.00, 0.00, -0.00, -1.00, 79.3, 376.0)"> </text><text xml:space="preserve" font-family="TrebuchetMS" font-size="30.0" fill="#000000" transform="matrix(1.00, 0.00, -0.00, -1.00, 88.3, 376.0)">c</text><text xml:space="preserve" font-family="TrebuchetMS" font-size="30.0" fill="#000000" transform="matrix(1.00, 0.00, -0.00, -1.00, 103.2, 376.0)">a</text><text xml:space="preserve" font-family="TrebuchetMS" font-size="30.0" fill="#000000" transform="matrix(1.00, 0.00, -0.00, -1.00, 118.9, 376.0)">n</text><text xml:space="preserve" font-family="TrebuchetMS" font-size="30.0" fill="#000000" transform="matrix(1.00, 0.00, -0.00, -1.00, 135.3, 376.0)"> </text><text xml:space="preserve" font-family="TrebuchetMS" font-size="30.0" fill="#000000" transform="matrix(1.00, 0.00, -0.00, -1.00, 144.4, 376.0)">u</text><text xml:space="preserve" font-family="TrebuchetMS" font-size="30.0" fill="#000000" transform="matrix(1.00, 0.00, -0.00, -1.00, 160.8, 376.0)">s</text><text xml:space="preserve" font-family="TrebuchetMS" font-size="30.0" fill="#000000" transform="matrix(1.00, 0.00, -0.00, -1.00, 172.9, 376.0)">e</text><text xml:space="preserve" font-family="TrebuchetMS" font-size="30.0" fill="#000000" transform="matrix(1.00, 0.00, -0.00, -1.00, 189.3, 376.0)"> </text><text xml:space="preserve" font-family="TrebuchetMS" font-size="30.0" fill="#000000" transform="matrix(1.00, 0.00, -0.00, -1.00, 198.3, 376.0)">a</text><text xml:space="preserve" font-family="TrebuchetMS" font-size="30.0" fill="#000000" transform="matrix(1.00, 0.00, -0.00, -1.00, 214.1, 376.0)">l</text><text xml:space="preserve" font-family="TrebuchetMS" font-size="30.0" fill="#000000" transform="matrix(1.00, 0.00, -0.00, -1.00, 223.0, 376.0)">l</text><text xml:space="preserve" font-family="TrebuchetMS" font-size="30.0" fill="#000000" transform="matrix(1.00, 0.00, -0.00, -1.00, 231.8, 376.0)"> </text><text xml:space="preserve" font-family="TrebuchetMS" font-size="30.0" fill="#000000" transform="matrix(1.00, 0.00, -0.00, -1.00, 240.9, 376.0)">t</text><text xml:space="preserve" font-family="TrebuchetMS" font-size="30.0" fill="#000000" transform="matrix(1.00, 0.00, -0.00, -1.00, 252.8, 376.0)">h</text><text xml:space="preserve" font-family="TrebuchetMS" font-size="30.0" fill="#000000" transform="matrix(1.00, 0.00, -0.00, -1.00, 269.2, 376.0)">e</text><text xml:space="preserve" font-family="TrebuchetMS" font-size="30.0" fill="#000000" transform="matrix(1.00, 0.00, -0.00, -1.00, 285.5, 376.0)"> </text><text xml:space="preserve" font-family="TrebuchetMS" font-size="30.0" fill="#000000" transform="matrix(1.00, 0.00, -0.00, -1.00, 294.6, 376.0)">f</text><text xml:space="preserve" font-family="TrebuchetMS" font-size="30.0" fill="#000000" transform="matrix(1.00, 0.00, -0.00, -1.00, 305.6, 376.0)">a</text><text xml:space="preserve" font-family="TrebuchetMS" font-size="30.0" fill="#000000" transform="matrix(1.00, 0.00, -0.00, -1.00, 321.4, 376.0)">n</text><text xml:space="preserve" font-family="TrebuchetMS" font-size="30.0" fill="#000000" transform="matrix(1.00, 0.00, -0.00, -1.00, 337.8, 376.0)">c</text><text xml:space="preserve" font-family="TrebuchetMS" font-size="30.0" fill="#000000" transform="matrix(1.00, 0.00, -0.00, -1.00, 352.7, 376.0)">y</text><text xml:space="preserve" font-family="TrebuchetMS" font-size="30.0" fill="#000000" transform="matrix(1.00, 0.00, -0.00, -1.00, 367.5, 376.0)"> </text><text xml:space="preserve" font-family="TrebuchetMS" font-size="30.0" fill="#000000" transform="matrix(1.00, 0.00, -0.00, -1.00, 376.5, 376.0)">t</text><text xml:space="preserve" font-family="TrebuchetMS" font-size="30.0" fill="#000000" transform="matrix(1.00, 0.00, -0.00, -1.00, 388.4, 376.0)">o</text><text xml:space="preserve" font-family="TrebuchetMS" font-size="30.0" fill="#000000" transform="matrix(1.00, 0.00, -0.00, -1.00, 404.5, 376.0)">y</text><text xml:space="preserve" font-family="TrebuchetMS" font-size="30.0" fill="#000000" transform="matrix(1.00, 0.00, -0.00, -1.00, 419.3, 376.0)">s</text><text xml:space="preserve" font-family="TrebuchetMS" font-size="30.0" fill="#000000" transform="matrix(1.00, 0.00, -0.00, -1.00, 431.3, 376.0)"> </text><text xml:space="preserve" font-family="ArialMT" font-size="30.0" fill="#000000" transform="matrix(1.00, 0.00, -0.00, -1.00, 21.6, 341.7)">•</text><text xml:space="preserve" font-family="TrebuchetMS" font-size="30.0" fill="#000000" transform="matrix(1.00, 0.00, -0.00, -1.00, 32.0, 341.0)">y</text><text xml:space="preserve" font-family="TrebuchetMS" font-size="30.0" fill="#000000" transform="matrix(1.00, 0.00, -0.00, -1.00, 46.8, 341.0)">o</text><text xml:space="preserve" font-family="TrebuchetMS" font-size="30.0" fill="#000000" transform="matrix(1.00, 0.00, -0.00, -1.00, 62.9, 341.0)">u</text><text xml:space="preserve" font-family="TrebuchetMS" font-size="30.0" fill="#000000" transform="matrix(1.00, 0.00, -0.00, -1.00, 79.3, 341.0)"> </text><text xml:space="preserve" font-family="TrebuchetMS" font-size="30.0" fill="#000000" transform="matrix(1.00, 0.00, -0.00, -1.00, 88.3, 341.0)">“</text><text xml:space="preserve" font-family="TrebuchetMS" font-size="30.0" fill="#000000" transform="matrix(1.00, 0.00, -0.00, -1.00, 104.1, 341.0)">d</text><text xml:space="preserve" font-family="TrebuchetMS" font-size="30.0" fill="#000000" transform="matrix(1.00, 0.00, -0.00, -1.00, 120.8, 341.0)">e</text><text xml:space="preserve" font-family="TrebuchetMS" font-size="30.0" fill="#000000" transform="matrix(1.00, 0.00, -0.00, -1.00, 137.1, 341.0)">p</text><text xml:space="preserve" font-family="TrebuchetMS" font-size="30.0" fill="#000000" transform="matrix(1.00, 0.00, -0.00, -1.00, 153.9, 341.0)">l</text><text xml:space="preserve" font-family="TrebuchetMS" font-size="30.0" fill="#000000" transform="matrix(1.00, 0.00, -0.00, -1.00, 162.7, 341.0)">o</text><text xml:space="preserve" font-family="TrebuchetMS" font-size="30.0" fill="#000000" transform="matrix(1.00, 0.00, -0.00, -1.00, 178.8, 341.0)">y</text><text xml:space="preserve" font-family="TrebuchetMS" font-size="30.0" fill="#000000" transform="matrix(1.00, 0.00, -0.00, -1.00, 193.6, 341.0)">”</text><text xml:space="preserve" font-family="TrebuchetMS" font-size="30.0" fill="#000000" transform="matrix(1.00, 0.00, -0.00, -1.00, 209.3, 341.0)"> </text><text xml:space="preserve" font-family="TrebuchetMS" font-size="30.0" fill="#000000" transform="matrix(1.00, 0.00, -0.00, -1.00, 218.4, 341.0)">y</text><text xml:space="preserve" font-family="TrebuchetMS" font-size="30.0" fill="#000000" transform="matrix(1.00, 0.00, -0.00, -1.00, 233.2, 341.0)">o</text><text xml:space="preserve" font-family="TrebuchetMS" font-size="30.0" fill="#000000" transform="matrix(1.00, 0.00, -0.00, -1.00, 249.3, 341.0)">u</text><text xml:space="preserve" font-family="TrebuchetMS" font-size="30.0" fill="#000000" transform="matrix(1.00, 0.00, -0.00, -1.00, 265.6, 341.0)">r</text><text xml:space="preserve" font-family="TrebuchetMS" font-size="30.0" fill="#000000" transform="matrix(1.00, 0.00, -0.00, -1.00, 277.3, 341.0)"> </text><text xml:space="preserve" font-family="TrebuchetMS" font-size="30.0" fill="#000000" transform="matrix(1.00, 0.00, -0.00, -1.00, 286.3, 341.0)">b</text><text xml:space="preserve" font-family="TrebuchetMS" font-size="30.0" fill="#000000" transform="matrix(1.00, 0.00, -0.00, -1.00, 303.0, 341.0)">u</text><text xml:space="preserve" font-family="TrebuchetMS" font-size="30.0" fill="#000000" transform="matrix(1.00, 0.00, -0.00, -1.00, 319.4, 341.0)">i</text><text xml:space="preserve" font-family="TrebuchetMS" font-size="30.0" fill="#000000" transform="matrix(1.00, 0.00, -0.00, -1.00, 328.0, 341.0)">l</text><text xml:space="preserve" font-family="TrebuchetMS" font-size="30.0" fill="#000000" transform="matrix(1.00, 0.00, -0.00, -1.00, 336.9, 341.0)">t</text><text xml:space="preserve" font-family="TrebuchetMS" font-size="30.0" fill="#000000" transform="matrix(1.00, 0.00, -0.00, -1.00, 348.8, 341.0)"> </text><text xml:space="preserve" font-family="TrebuchetMS" font-size="30.0" fill="#000000" transform="matrix(1.00, 0.00, -0.00, -1.00, 357.8, 341.0)">a</text><text xml:space="preserve" font-family="TrebuchetMS" font-size="30.0" fill="#000000" transform="matrix(1.00, 0.00, -0.00, -1.00, 373.6, 341.0)">p</text><text xml:space="preserve" font-family="TrebuchetMS" font-size="30.0" fill="#000000" transform="matrix(1.00, 0.00, -0.00, -1.00, 390.3, 341.0)">p</text><text xml:space="preserve" font-family="TrebuchetMS" font-size="30.0" fill="#000000" transform="matrix(1.00, 0.00, -0.00, -1.00, 407.0, 341.0)"> </text><text xml:space="preserve" font-family="TrebuchetMS" font-size="30.0" fill="#000000" transform="matrix(1.00, 0.00, -0.00, -1.00, 416.1, 341.0)">t</text><text xml:space="preserve" font-family="TrebuchetMS" font-size="30.0" fill="#000000" transform="matrix(1.00, 0.00, -0.00, -1.00, 428.0, 341.0)">o</text><text xml:space="preserve" font-family="TrebuchetMS" font-size="30.0" fill="#000000" transform="matrix(1.00, 0.00, -0.00, -1.00, 444.0, 341.0)"> </text><text xml:space="preserve" font-family="LucidaGrande" font-size="30.0" fill="#000000" transform="matrix(1.00, 0.00, -0.00, -1.00, 453.0, 341.0)"> </text><text xml:space="preserve" font-family="TrebuchetMS" font-size="30.0" fill="#000000" transform="matrix(1.00, 0.00, -0.00, -1.00, 22.0, 306.0)"> </text><text xml:space="preserve" font-family="TrebuchetMS" font-size="30.0" fill="#000000" transform="matrix(1.00, 0.00, -0.00, -1.00, 94.0, 306.0)"> </text><text xml:space="preserve" font-family="TrebuchetMS" font-size="30.0" fill="#000000" transform="matrix(1.00, 0.00, -0.00, -1.00, 166.0, 306.0)">y</text><text xml:space="preserve" font-family="TrebuchetMS" font-size="30.0" fill="#000000" transform="matrix(1.00, 0.00, -0.00, -1.00, 180.8, 306.0)">o</text><text xml:space="preserve" font-family="TrebuchetMS" font-size="30.0" fill="#000000" transform="matrix(1.00, 0.00, -0.00, -1.00, 196.9, 306.0)">u</text><text xml:space="preserve" font-family="TrebuchetMS" font-size="30.0" fill="#000000" transform="matrix(1.00, 0.00, -0.00, -1.00, 213.3, 306.0)">r</text><text xml:space="preserve" font-family="TrebuchetMS" font-size="30.0" fill="#000000" transform="matrix(1.00, 0.00, -0.00, -1.00, 225.0, 306.0)"> </text><text xml:space="preserve" font-family="TrebuchetMS" font-size="30.0" fill="#000000" transform="matrix(1.00, 0.00, -0.00, -1.00, 234.0, 306.0)">O</text><text xml:space="preserve" font-family="TrebuchetMS" font-size="30.0" fill="#000000" transform="matrix(1.00, 0.00, -0.00, -1.00, 254.2, 306.0)">D</text><text xml:space="preserve" font-family="TrebuchetMS" font-size="30.0" fill="#000000" transform="matrix(1.00, 0.00, -0.00, -1.00, 272.6, 306.0)">P</text><text xml:space="preserve" font-family="TrebuchetMS" font-size="30.0" fill="#000000" transform="matrix(1.00, 0.00, -0.00, -1.00, 289.3, 306.0)">’</text><text xml:space="preserve" font-family="TrebuchetMS" font-size="30.0" fill="#000000" transform="matrix(1.00, 0.00, -0.00, -1.00, 298.3, 306.0)">s</text><text xml:space="preserve" font-family="TrebuchetMS" font-size="30.0" fill="#000000" transform="matrix(1.00, 0.00, -0.00, -1.00, 310.4, 306.0)"> </text><text xml:space="preserve" font-family="TrebuchetMS" font-size="30.0" fill="#000000" transform="matrix(1.00, 0.00, -0.00, -1.00, 319.5, 306.0)">W</text><text xml:space="preserve" font-family="TrebuchetMS" font-size="30.0" fill="#000000" transform="matrix(1.00, 0.00, -0.00, -1.00, 343.7, 306.0)">e</text><text xml:space="preserve" font-family="TrebuchetMS" font-size="30.0" fill="#000000" transform="matrix(1.00, 0.00, -0.00, -1.00, 360.0, 306.0)">b</text><text xml:space="preserve" font-family="TrebuchetMS" font-size="30.0" fill="#000000" transform="matrix(1.00, 0.00, -0.00, -1.00, 376.7, 306.0)">C</text><text xml:space="preserve" font-family="TrebuchetMS" font-size="30.0" fill="#000000" transform="matrix(1.00, 0.00, -0.00, -1.00, 394.7, 306.0)">o</text><text xml:space="preserve" font-family="TrebuchetMS" font-size="30.0" fill="#000000" transform="matrix(1.00, 0.00, -0.00, -1.00, 410.8, 306.0)">n</text><text xml:space="preserve" font-family="TrebuchetMS" font-size="30.0" fill="#000000" transform="matrix(1.00, 0.00, -0.00, -1.00, 427.2, 306.0)">t</text><text xml:space="preserve" font-family="TrebuchetMS" font-size="30.0" fill="#000000" transform="matrix(1.00, 0.00, -0.00, -1.00, 439.1, 306.0)">e</text><text xml:space="preserve" font-family="TrebuchetMS" font-size="30.0" fill="#000000" transform="matrix(1.00, 0.00, -0.00, -1.00, 455.4, 306.0)">n</text><text xml:space="preserve" font-family="TrebuchetMS" font-size="30.0" fill="#000000" transform="matrix(1.00, 0.00, -0.00, -1.00, 471.8, 306.0)">t</text><text xml:space="preserve" font-family="TrebuchetMS" font-size="30.0" fill="#000000" transform="matrix(1.00, 0.00, -0.00, -1.00, 483.7, 306.0)">/</text><text xml:space="preserve" font-family="TrebuchetMS" font-size="30.0" fill="#000000" transform="matrix(1.00, 0.00, -0.00, -1.00, 499.4, 306.0)"> </text><text xml:space="preserve" font-family="TrebuchetMS" font-size="30.0" fill="#000000" transform="matrix(1.00, 0.00, -0.00, -1.00, 508.5, 306.0)">p</text><text xml:space="preserve" font-family="TrebuchetMS" font-size="30.0" fill="#000000" transform="matrix(1.00, 0.00, -0.00, -1.00, 525.2, 306.0)">a</text><text xml:space="preserve" font-family="TrebuchetMS" font-size="30.0" fill="#000000" transform="matrix(1.00, 0.00, -0.00, -1.00, 540.9, 306.0)">t</text><text xml:space="preserve" font-family="TrebuchetMS" font-size="30.0" fill="#000000" transform="matrix(1.00, 0.00, -0.00, -1.00, 552.8, 306.0)">h</text><text xml:space="preserve" font-family="TrebuchetMS" font-size="30.0" fill="#000000" transform="matrix(1.00, 0.00, -0.00, -1.00, 569.2, 306.0)"> </text><text xml:space="preserve" font-family="ArialMT" font-size="30.0" fill="#000000" transform="matrix(1.00, 0.00, -0.00, -1.00, 21.6, 271.7)">•</text><text xml:space="preserve" font-family="TrebuchetMS" font-size="30.0" fill="#000000" transform="matrix(1.00, 0.00, -0.00, -1.00, 32.0, 271.0)">p</text><text xml:space="preserve" font-family="TrebuchetMS" font-size="30.0" fill="#000000" transform="matrix(1.00, 0.00, -0.00, -1.00, 48.7, 271.0)">r</text><text xml:space="preserve" font-family="TrebuchetMS" font-size="30.0" fill="#000000" transform="matrix(1.00, 0.00, -0.00, -1.00, 60.4, 271.0)">o</text><text xml:space="preserve" font-family="TrebuchetMS" font-size="30.0" fill="#000000" transform="matrix(1.00, 0.00, -0.00, -1.00, 76.5, 271.0)">p</text><text xml:space="preserve" font-family="TrebuchetMS" font-size="30.0" fill="#000000" transform="matrix(1.00, 0.00, -0.00, -1.00, 93.2, 271.0)">e</text><text xml:space="preserve" font-family="TrebuchetMS" font-size="30.0" fill="#000000" transform="matrix(1.00, 0.00, -0.00, -1.00, 109.5, 271.0)">r</text><text xml:space="preserve" font-family="TrebuchetMS" font-size="30.0" fill="#000000" transform="matrix(1.00, 0.00, -0.00, -1.00, 121.2, 271.0)">l</text><text xml:space="preserve" font-family="TrebuchetMS" font-size="30.0" fill="#000000" transform="matrix(1.00, 0.00, -0.00, -1.00, 130.0, 271.0)">y</text><text xml:space="preserve" font-family="TrebuchetMS" font-size="30.0" fill="#000000" transform="matrix(1.00, 0.00, -0.00, -1.00, 144.8, 271.0)"> </text><text xml:space="preserve" font-family="TrebuchetMS" font-size="30.0" fill="#000000" transform="matrix(1.00, 0.00, -0.00, -1.00, 153.9, 271.0)">s</text><text xml:space="preserve" font-family="TrebuchetMS" font-size="30.0" fill="#000000" transform="matrix(1.00, 0.00, -0.00, -1.00, 166.0, 271.0)">t</text><text xml:space="preserve" font-family="TrebuchetMS" font-size="30.0" fill="#000000" transform="matrix(1.00, 0.00, -0.00, -1.00, 177.9, 271.0)">r</text><text xml:space="preserve" font-family="TrebuchetMS" font-size="30.0" fill="#000000" transform="matrix(1.00, 0.00, -0.00, -1.00, 189.6, 271.0)">u</text><text xml:space="preserve" font-family="TrebuchetMS" font-size="30.0" fill="#000000" transform="matrix(1.00, 0.00, -0.00, -1.00, 206.0, 271.0)">c</text><text xml:space="preserve" font-family="TrebuchetMS" font-size="30.0" fill="#000000" transform="matrix(1.00, 0.00, -0.00, -1.00, 220.8, 271.0)">t</text><text xml:space="preserve" font-family="TrebuchetMS" font-size="30.0" fill="#000000" transform="matrix(1.00, 0.00, -0.00, -1.00, 232.7, 271.0)">u</text><text xml:space="preserve" font-family="TrebuchetMS" font-size="30.0" fill="#000000" transform="matrix(1.00, 0.00, -0.00, -1.00, 249.1, 271.0)">r</text><text xml:space="preserve" font-family="TrebuchetMS" font-size="30.0" fill="#000000" transform="matrix(1.00, 0.00, -0.00, -1.00, 260.8, 271.0)">e</text><text xml:space="preserve" font-family="TrebuchetMS" font-size="30.0" fill="#000000" transform="matrix(1.00, 0.00, -0.00, -1.00, 277.2, 271.0)">d</text><text xml:space="preserve" font-family="TrebuchetMS" font-size="30.0" fill="#000000" transform="matrix(1.00, 0.00, -0.00, -1.00, 293.9, 271.0)">,</text><text xml:space="preserve" font-family="TrebuchetMS" font-size="30.0" fill="#000000" transform="matrix(1.00, 0.00, -0.00, -1.00, 304.9, 271.0)"> </text><text xml:space="preserve" font-family="TrebuchetMS" font-size="30.0" fill="#000000" transform="matrix(1.00, 0.00, -0.00, -1.00, 313.9, 271.0)">y</text><text xml:space="preserve" font-family="TrebuchetMS" font-size="30.0" fill="#000000" transform="matrix(1.00, 0.00, -0.00, -1.00, 328.7, 271.0)">o</text><text xml:space="preserve" font-family="TrebuchetMS" font-size="30.0" fill="#000000" transform="matrix(1.00, 0.00, -0.00, -1.00, 344.8, 271.0)">u</text><text xml:space="preserve" font-family="TrebuchetMS" font-size="30.0" fill="#000000" transform="matrix(1.00, 0.00, -0.00, -1.00, 361.2, 271.0)"> </text><text xml:space="preserve" font-family="TrebuchetMS" font-size="30.0" fill="#000000" transform="matrix(1.00, 0.00, -0.00, -1.00, 370.2, 271.0)">c</text><text xml:space="preserve" font-family="TrebuchetMS" font-size="30.0" fill="#000000" transform="matrix(1.00, 0.00, -0.00, -1.00, 385.1, 271.0)">a</text><text xml:space="preserve" font-family="TrebuchetMS" font-size="30.0" fill="#000000" transform="matrix(1.00, 0.00, -0.00, -1.00, 400.9, 271.0)">n</text><text xml:space="preserve" font-family="TrebuchetMS" font-size="30.0" fill="#000000" transform="matrix(1.00, 0.00, -0.00, -1.00, 417.3, 271.0)"> </text><text xml:space="preserve" font-family="TrebuchetMS" font-size="30.0" fill="#000000" transform="matrix(1.00, 0.00, -0.00, -1.00, 426.3, 271.0)">u</text><text xml:space="preserve" font-family="TrebuchetMS" font-size="30.0" fill="#000000" transform="matrix(1.00, 0.00, -0.00, -1.00, 442.7, 271.0)">s</text><text xml:space="preserve" font-family="TrebuchetMS" font-size="30.0" fill="#000000" transform="matrix(1.00, 0.00, -0.00, -1.00, 454.8, 271.0)">e</text><text xml:space="preserve" font-family="LucidaGrande" font-size="30.0" fill="#000000" transform="matrix(1.00, 0.00, -0.00, -1.00, 471.2, 271.0)"> </text><text xml:space="preserve" font-family="TrebuchetMS" font-size="30.0" fill="#000000" transform="matrix(1.00, 0.00, -0.00, -1.00, 22.0, 236.0)"> </text><text xml:space="preserve" font-family="TrebuchetMS" font-size="30.0" fill="#000000" transform="matrix(1.00, 0.00, -0.00, -1.00, 94.0, 236.0)"> </text><text xml:space="preserve" font-family="TrebuchetMS" font-size="30.0" fill="#000000" transform="matrix(1.00, 0.00, -0.00, -1.00, 166.0, 236.0)">b</text><text xml:space="preserve" font-family="TrebuchetMS" font-size="30.0" fill="#000000" transform="matrix(1.00, 0.00, -0.00, -1.00, 182.7, 236.0)">a</text><text xml:space="preserve" font-family="TrebuchetMS" font-size="30.0" fill="#000000" transform="matrix(1.00, 0.00, -0.00, -1.00, 198.5, 236.0)">c</text><text xml:space="preserve" font-family="TrebuchetMS" font-size="30.0" fill="#000000" transform="matrix(1.00, 0.00, -0.00, -1.00, 213.3, 236.0)">k</text><text xml:space="preserve" font-family="TrebuchetMS" font-size="30.0" fill="#000000" transform="matrix(1.00, 0.00, -0.00, -1.00, 228.5, 236.0)">-</text><text xml:space="preserve" font-family="TrebuchetMS" font-size="30.0" fill="#000000" transform="matrix(1.00, 0.00, -0.00, -1.00, 239.5, 236.0)">e</text><text xml:space="preserve" font-family="TrebuchetMS" font-size="30.0" fill="#000000" transform="matrix(1.00, 0.00, -0.00, -1.00, 255.9, 236.0)">n</text><text xml:space="preserve" font-family="TrebuchetMS" font-size="30.0" fill="#000000" transform="matrix(1.00, 0.00, -0.00, -1.00, 272.2, 236.0)">d</text><text xml:space="preserve" font-family="TrebuchetMS" font-size="30.0" fill="#000000" transform="matrix(1.00, 0.00, -0.00, -1.00, 289.0, 236.0)"> </text><text xml:space="preserve" font-family="TrebuchetMS" font-size="30.0" fill="#000000" transform="matrix(1.00, 0.00, -0.00, -1.00, 298.0, 236.0)">m</text><text xml:space="preserve" font-family="TrebuchetMS" font-size="30.0" fill="#000000" transform="matrix(1.00, 0.00, -0.00, -1.00, 322.9, 236.0)">o</text><text xml:space="preserve" font-family="TrebuchetMS" font-size="30.0" fill="#000000" transform="matrix(1.00, 0.00, -0.00, -1.00, 339.0, 236.0)">c</text><text xml:space="preserve" font-family="TrebuchetMS" font-size="30.0" fill="#000000" transform="matrix(1.00, 0.00, -0.00, -1.00, 353.9, 236.0)">k</text><text xml:space="preserve" font-family="TrebuchetMS" font-size="30.0" fill="#000000" transform="matrix(1.00, 0.00, -0.00, -1.00, 369.0, 236.0)">s</text><text xml:space="preserve" font-family="TrebuchetMS" font-size="30.0" fill="#000000" transform="matrix(1.00, 0.00, -0.00, -1.00, 381.1, 236.0)"> </text><text xml:space="preserve" font-family="TrebuchetMS" font-size="30.0" fill="#000000" transform="matrix(1.00, 0.00, -0.00, -1.00, 390.2, 236.0)">f</text><text xml:space="preserve" font-family="TrebuchetMS" font-size="30.0" fill="#000000" transform="matrix(1.00, 0.00, -0.00, -1.00, 401.3, 236.0)">o</text><text xml:space="preserve" font-family="TrebuchetMS" font-size="30.0" fill="#000000" transform="matrix(1.00, 0.00, -0.00, -1.00, 417.4, 236.0)">r</text><text xml:space="preserve" font-family="TrebuchetMS" font-size="30.0" fill="#000000" transform="matrix(1.00, 0.00, -0.00, -1.00, 429.0, 236.0)"> </text><text xml:space="preserve" font-family="TrebuchetMS" font-size="30.0" fill="#000000" transform="matrix(1.00, 0.00, -0.00, -1.00, 438.1, 236.0)">D</text><text xml:space="preserve" font-family="TrebuchetMS" font-size="30.0" fill="#000000" transform="matrix(1.00, 0.00, -0.00, -1.00, 456.5, 236.0)">D</text><text xml:space="preserve" font-family="TrebuchetMS" font-size="30.0" fill="#000000" transform="matrix(1.00, 0.00, -0.00, -1.00, 474.8, 236.0)">E</text><text xml:space="preserve" font-family="TrebuchetMS" font-size="30.0" fill="#000000" transform="matrix(1.00, 0.00, -0.00, -1.00, 490.9, 236.0)">-</text><text xml:space="preserve" font-family="TrebuchetMS" font-size="30.0" fill="#000000" transform="matrix(1.00, 0.00, -0.00, -1.00, 501.9, 236.0)">l</text><text xml:space="preserve" font-family="TrebuchetMS" font-size="30.0" fill="#000000" transform="matrix(1.00, 0.00, -0.00, -1.00, 510.8, 236.0)">e</text><text xml:space="preserve" font-family="TrebuchetMS" font-size="30.0" fill="#000000" transform="matrix(1.00, 0.00, -0.00, -1.00, 527.1, 236.0)">s</text><text xml:space="preserve" font-family="TrebuchetMS" font-size="30.0" fill="#000000" transform="matrix(1.00, 0.00, -0.00, -1.00, 539.3, 236.0)">s</text><text xml:space="preserve" font-family="LucidaGrande" font-size="30.0" fill="#000000" transform="matrix(1.00, 0.00, -0.00, -1.00, 551.4, 236.0)"> </text><text xml:space="preserve" font-family="TrebuchetMS" font-size="30.0" fill="#000000" transform="matrix(1.00, 0.00, -0.00, -1.00, 22.0, 201.0)"> </text><text xml:space="preserve" font-family="TrebuchetMS" font-size="30.0" fill="#000000" transform="matrix(1.00, 0.00, -0.00, -1.00, 94.0, 201.0)"> </text><text xml:space="preserve" font-family="TrebuchetMS" font-size="30.0" fill="#000000" transform="matrix(1.00, 0.00, -0.00, -1.00, 166.0, 201.0)">p</text><text xml:space="preserve" font-family="TrebuchetMS" font-size="30.0" fill="#000000" transform="matrix(1.00, 0.00, -0.00, -1.00, 182.7, 201.0)">r</text><text xml:space="preserve" font-family="TrebuchetMS" font-size="30.0" fill="#000000" transform="matrix(1.00, 0.00, -0.00, -1.00, 194.4, 201.0)">e</text><text xml:space="preserve" font-family="TrebuchetMS" font-size="30.0" fill="#000000" transform="matrix(1.00, 0.00, -0.00, -1.00, 210.8, 201.0)">v</text><text xml:space="preserve" font-family="TrebuchetMS" font-size="30.0" fill="#000000" transform="matrix(1.00, 0.00, -0.00, -1.00, 225.4, 201.0)">i</text><text xml:space="preserve" font-family="TrebuchetMS" font-size="30.0" fill="#000000" transform="matrix(1.00, 0.00, -0.00, -1.00, 234.0, 201.0)">e</text><text xml:space="preserve" font-family="TrebuchetMS" font-size="30.0" fill="#000000" transform="matrix(1.00, 0.00, -0.00, -1.00, 250.4, 201.0)">w</text><text xml:space="preserve" font-family="TrebuchetMS" font-size="30.0" fill="#000000" transform="matrix(1.00, 0.00, -0.00, -1.00, 272.7, 201.0)"> </text><text xml:space="preserve" font-family="TrebuchetMS" font-size="30.0" fill="#000000" transform="matrix(1.00, 0.00, -0.00, -1.00, 281.7, 201.0)">a</text><text xml:space="preserve" font-family="TrebuchetMS" font-size="30.0" fill="#000000" transform="matrix(1.00, 0.00, -0.00, -1.00, 297.5, 201.0)">n</text><text xml:space="preserve" font-family="TrebuchetMS" font-size="30.0" fill="#000000" transform="matrix(1.00, 0.00, -0.00, -1.00, 313.9, 201.0)">d</text><text xml:space="preserve" font-family="TrebuchetMS" font-size="30.0" fill="#000000" transform="matrix(1.00, 0.00, -0.00, -1.00, 330.6, 201.0)"> </text><text xml:space="preserve" font-family="TrebuchetMS" font-size="30.0" fill="#000000" transform="matrix(1.00, 0.00, -0.00, -1.00, 339.6, 201.0)">e</text><text xml:space="preserve" font-family="TrebuchetMS" font-size="30.0" fill="#000000" transform="matrix(1.00, 0.00, -0.00, -1.00, 356.0, 201.0)">d</text><text xml:space="preserve" font-family="TrebuchetMS" font-size="30.0" fill="#000000" transform="matrix(1.00, 0.00, -0.00, -1.00, 372.7, 201.0)">i</text><text xml:space="preserve" font-family="TrebuchetMS" font-size="30.0" fill="#000000" transform="matrix(1.00, 0.00, -0.00, -1.00, 381.3, 201.0)">t</text><text xml:space="preserve" font-family="TrebuchetMS" font-size="30.0" fill="#000000" transform="matrix(1.00, 0.00, -0.00, -1.00, 393.2, 201.0)">s</text><text xml:space="preserve" font-family="TrebuchetMS" font-size="30.0" fill="#000000" transform="matrix(1.00, 0.00, -0.00, -1.00, 405.3, 201.0)"> </text><text xml:space="preserve" font-family="ArialMT" font-size="30.0" fill="#000000" transform="matrix(1.00, 0.00, -0.00, -1.00, 21.6, 166.7)">•</text><text xml:space="preserve" font-family="TrebuchetMS" font-size="30.0" fill="#000000" transform="matrix(1.00, 0.00, -0.00, -1.00, 32.0, 166.0)">s</text><text xml:space="preserve" font-family="TrebuchetMS" font-size="30.0" fill="#000000" transform="matrix(1.00, 0.00, -0.00, -1.00, 44.1, 166.0)">o</text><text xml:space="preserve" font-family="TrebuchetMS" font-size="30.0" fill="#000000" transform="matrix(1.00, 0.00, -0.00, -1.00, 60.2, 166.0)">m</text><text xml:space="preserve" font-family="TrebuchetMS" font-size="30.0" fill="#000000" transform="matrix(1.00, 0.00, -0.00, -1.00, 85.1, 166.0)">e</text><text xml:space="preserve" font-family="TrebuchetMS" font-size="30.0" fill="#000000" transform="matrix(1.00, 0.00, -0.00, -1.00, 101.5, 166.0)"> </text><text xml:space="preserve" font-family="TrebuchetMS" font-size="30.0" fill="#000000" transform="matrix(1.00, 0.00, -0.00, -1.00, 110.6, 166.0)">t</text><text xml:space="preserve" font-family="TrebuchetMS" font-size="30.0" fill="#000000" transform="matrix(1.00, 0.00, -0.00, -1.00, 122.5, 166.0)">o</text><text xml:space="preserve" font-family="TrebuchetMS" font-size="30.0" fill="#000000" transform="matrix(1.00, 0.00, -0.00, -1.00, 138.5, 166.0)">o</text><text xml:space="preserve" font-family="TrebuchetMS" font-size="30.0" fill="#000000" transform="matrix(1.00, 0.00, -0.00, -1.00, 154.6, 166.0)">l</text><text xml:space="preserve" font-family="TrebuchetMS" font-size="30.0" fill="#000000" transform="matrix(1.00, 0.00, -0.00, -1.00, 163.5, 166.0)">i</text><text xml:space="preserve" font-family="TrebuchetMS" font-size="30.0" fill="#000000" transform="matrix(1.00, 0.00, -0.00, -1.00, 172.0, 166.0)">n</text><text xml:space="preserve" font-family="TrebuchetMS" font-size="30.0" fill="#000000" transform="matrix(1.00, 0.00, -0.00, -1.00, 188.4, 166.0)">g</text><text xml:space="preserve" font-family="TrebuchetMS" font-size="30.0" fill="#000000" transform="matrix(1.00, 0.00, -0.00, -1.00, 203.5, 166.0)"> </text><text xml:space="preserve" font-family="TrebuchetMS" font-size="30.0" fill="#000000" transform="matrix(1.00, 0.00, -0.00, -1.00, 212.5, 166.0)">(</text><text xml:space="preserve" font-family="TrebuchetMS" font-size="30.0" fill="#000000" transform="matrix(1.00, 0.00, -0.00, -1.00, 223.6, 166.0)">a</text><text xml:space="preserve" font-family="TrebuchetMS" font-size="30.0" fill="#000000" transform="matrix(1.00, 0.00, -0.00, -1.00, 239.3, 166.0)">n</text><text xml:space="preserve" font-family="TrebuchetMS" font-size="30.0" fill="#000000" transform="matrix(1.00, 0.00, -0.00, -1.00, 255.7, 166.0)">g</text><text xml:space="preserve" font-family="TrebuchetMS" font-size="30.0" fill="#000000" transform="matrix(1.00, 0.00, -0.00, -1.00, 270.8, 166.0)">u</text><text xml:space="preserve" font-family="TrebuchetMS" font-size="30.0" fill="#000000" transform="matrix(1.00, 0.00, -0.00, -1.00, 287.2, 166.0)">l</text><text xml:space="preserve" font-family="TrebuchetMS" font-size="30.0" fill="#000000" transform="matrix(1.00, 0.00, -0.00, -1.00, 296.1, 166.0)">a</text><text xml:space="preserve" font-family="TrebuchetMS" font-size="30.0" fill="#000000" transform="matrix(1.00, 0.00, -0.00, -1.00, 311.8, 166.0)">r</text><text xml:space="preserve" font-family="TrebuchetMS" font-size="30.0" fill="#000000" transform="matrix(1.00, 0.00, -0.00, -1.00, 323.5, 166.0)">-</text><text xml:space="preserve" font-family="TrebuchetMS" font-size="30.0" fill="#000000" transform="matrix(1.00, 0.00, -0.00, -1.00, 334.5, 166.0)">c</text><text xml:space="preserve" font-family="TrebuchetMS" font-size="30.0" fill="#000000" transform="matrix(1.00, 0.00, -0.00, -1.00, 349.4, 166.0)">l</text><text xml:space="preserve" font-family="TrebuchetMS" font-size="30.0" fill="#000000" transform="matrix(1.00, 0.00, -0.00, -1.00, 358.2, 166.0)">i</text><text xml:space="preserve" font-family="TrebuchetMS" font-size="30.0" fill="#000000" transform="matrix(1.00, 0.00, -0.00, -1.00, 366.8, 166.0)">,</text><text xml:space="preserve" font-family="LucidaGrande" font-size="30.0" fill="#000000" transform="matrix(1.00, 0.00, -0.00, -1.00, 377.7, 166.0)"> </text><text xml:space="preserve" font-family="TrebuchetMS" font-size="30.0" fill="#000000" transform="matrix(1.00, 0.00, -0.00, -1.00, 22.0, 131.0)"> </text><text xml:space="preserve" font-family="TrebuchetMS" font-size="30.0" fill="#000000" transform="matrix(1.00, 0.00, -0.00, -1.00, 94.0, 131.0)"> </text><text xml:space="preserve" font-family="TrebuchetMS" font-size="30.0" fill="#000000" transform="matrix(1.00, 0.00, -0.00, -1.00, 166.0, 131.0)">w</text><text xml:space="preserve" font-family="TrebuchetMS" font-size="30.0" fill="#000000" transform="matrix(1.00, 0.00, -0.00, -1.00, 188.3, 131.0)">e</text><text xml:space="preserve" font-family="TrebuchetMS" font-size="30.0" fill="#000000" transform="matrix(1.00, 0.00, -0.00, -1.00, 204.7, 131.0)">b</text><text xml:space="preserve" font-family="TrebuchetMS" font-size="30.0" fill="#000000" transform="matrix(1.00, 0.00, -0.00, -1.00, 221.4, 131.0)">p</text><text xml:space="preserve" font-family="TrebuchetMS" font-size="30.0" fill="#000000" transform="matrix(1.00, 0.00, -0.00, -1.00, 238.1, 131.0)">a</text><text xml:space="preserve" font-family="TrebuchetMS" font-size="30.0" fill="#000000" transform="matrix(1.00, 0.00, -0.00, -1.00, 253.9, 131.0)">c</text><text xml:space="preserve" font-family="TrebuchetMS" font-size="30.0" fill="#000000" transform="matrix(1.00, 0.00, -0.00, -1.00, 268.7, 131.0)">k</text><text xml:space="preserve" font-family="TrebuchetMS" font-size="30.0" fill="#000000" transform="matrix(1.00, 0.00, -0.00, -1.00, 283.9, 131.0)">,</text><text xml:space="preserve" font-family="TrebuchetMS" font-size="30.0" fill="#000000" transform="matrix(1.00, 0.00, -0.00, -1.00, 294.9, 131.0)"> </text><text xml:space="preserve" font-family="TrebuchetMS" font-size="30.0" fill="#000000" transform="matrix(1.00, 0.00, -0.00, -1.00, 303.9, 131.0)">e</text><text xml:space="preserve" font-family="TrebuchetMS" font-size="30.0" fill="#000000" transform="matrix(1.00, 0.00, -0.00, -1.00, 320.3, 131.0)">t</text><text xml:space="preserve" font-family="TrebuchetMS" font-size="30.0" fill="#000000" transform="matrix(1.00, 0.00, -0.00, -1.00, 332.2, 131.0)">c</text><text xml:space="preserve" font-family="TrebuchetMS" font-size="30.0" fill="#000000" transform="matrix(1.00, 0.00, -0.00, -1.00, 347.0, 131.0)">.</text><text xml:space="preserve" font-family="TrebuchetMS" font-size="30.0" fill="#000000" transform="matrix(1.00, 0.00, -0.00, -1.00, 358.1, 131.0)">)</text><text xml:space="preserve" font-family="TrebuchetMS" font-size="30.0" fill="#000000" transform="matrix(1.00, 0.00, -0.00, -1.00, 369.1, 131.0)"> </text><text xml:space="preserve" font-family="TrebuchetMS" font-size="30.0" fill="#000000" transform="matrix(1.00, 0.00, -0.00, -1.00, 378.1, 131.0)">a</text><text xml:space="preserve" font-family="TrebuchetMS" font-size="30.0" fill="#000000" transform="matrix(1.00, 0.00, -0.00, -1.00, 393.9, 131.0)">u</text><text xml:space="preserve" font-family="TrebuchetMS" font-size="30.0" fill="#000000" transform="matrix(1.00, 0.00, -0.00, -1.00, 410.3, 131.0)">t</text><text xml:space="preserve" font-family="TrebuchetMS" font-size="30.0" fill="#000000" transform="matrix(1.00, 0.00, -0.00, -1.00, 422.2, 131.0)">o</text><text xml:space="preserve" font-family="TrebuchetMS" font-size="30.0" fill="#000000" transform="matrix(1.00, 0.00, -0.00, -1.00, 438.3, 131.0)">m</text><text xml:space="preserve" font-family="TrebuchetMS" font-size="30.0" fill="#000000" transform="matrix(1.00, 0.00, -0.00, -1.00, 463.2, 131.0)">a</text><text xml:space="preserve" font-family="TrebuchetMS" font-size="30.0" fill="#000000" transform="matrix(1.00, 0.00, -0.00, -1.00, 478.9, 131.0)">t</text><text xml:space="preserve" font-family="TrebuchetMS" font-size="30.0" fill="#000000" transform="matrix(1.00, 0.00, -0.00, -1.00, 490.8, 131.0)">e</text><text xml:space="preserve" font-family="TrebuchetMS" font-size="30.0" fill="#000000" transform="matrix(1.00, 0.00, -0.00, -1.00, 507.2, 131.0)">s</text><text xml:space="preserve" font-family="TrebuchetMS" font-size="30.0" fill="#000000" transform="matrix(1.00, 0.00, -0.00, -1.00, 519.3, 131.0)"> </text><text xml:space="preserve" font-family="TrebuchetMS" font-size="30.0" fill="#000000" transform="matrix(1.00, 0.00, -0.00, -1.00, 528.4, 131.0)">t</text><text xml:space="preserve" font-family="TrebuchetMS" font-size="30.0" fill="#000000" transform="matrix(1.00, 0.00, -0.00, -1.00, 540.3, 131.0)">h</text><text xml:space="preserve" font-family="TrebuchetMS" font-size="30.0" fill="#000000" transform="matrix(1.00, 0.00, -0.00, -1.00, 556.6, 131.0)">i</text><text xml:space="preserve" font-family="TrebuchetMS" font-size="30.0" fill="#000000" transform="matrix(1.00, 0.00, -0.00, -1.00, 565.2, 131.0)">s</text><text xml:space="preserve" font-family="TrebuchetMS" font-size="36.0" fill="#000000" transform="matrix(1.00, 0.00, -0.00, -1.00, 22.0, 436.0)">A</text><text xml:space="preserve" font-family="TrebuchetMS" font-size="36.0" fill="#000000" transform="matrix(1.00, 0.00, -0.00, -1.00, 43.2, 436.0)">p</text><text xml:space="preserve" font-family="TrebuchetMS" font-size="36.0" fill="#000000" transform="matrix(1.00, 0.00, -0.00, -1.00, 63.3, 436.0)">p</text><text xml:space="preserve" font-family="TrebuchetMS" font-size="36.0" fill="#000000" transform="matrix(1.00, 0.00, -0.00, -1.00, 83.3, 436.0)"> </text><text xml:space="preserve" font-family="TrebuchetMS" font-size="36.0" fill="#000000" transform="matrix(1.00, 0.00, -0.00, -1.00, 94.2, 436.0)">C</text><text xml:space="preserve" font-family="TrebuchetMS" font-size="36.0" fill="#000000" transform="matrix(1.00, 0.00, -0.00, -1.00, 115.7, 436.0)">o</text><text xml:space="preserve" font-family="TrebuchetMS" font-size="36.0" fill="#000000" transform="matrix(1.00, 0.00, -0.00, -1.00, 135.0, 436.0)">n</text><text xml:space="preserve" font-family="TrebuchetMS" font-size="36.0" fill="#000000" transform="matrix(1.00, 0.00, -0.00, -1.00, 154.7, 436.0)">c</text><text xml:space="preserve" font-family="TrebuchetMS" font-size="36.0" fill="#000000" transform="matrix(1.00, 0.00, -0.00, -1.00, 172.6, 436.0)">e</text><text xml:space="preserve" font-family="TrebuchetMS" font-size="36.0" fill="#000000" transform="matrix(1.00, 0.00, -0.00, -1.00, 192.2, 436.0)">r</text><text xml:space="preserve" font-family="TrebuchetMS" font-size="36.0" fill="#000000" transform="matrix(1.00, 0.00, -0.00, -1.00, 206.2, 436.0)">n</text><text xml:space="preserve" font-family="TrebuchetMS" font-size="36.0" fill="#000000" transform="matrix(1.00, 0.00, -0.00, -1.00, 225.9, 436.0)">s</text><text xml:space="preserve" font-family="TrebuchetMS" font-size="36.0" fill="#000000" transform="matrix(1.00, 0.00, -0.00, -1.00, 240.5, 436.0)">:</text><text xml:space="preserve" font-family="TrebuchetMS" font-size="36.0" fill="#000000" transform="matrix(1.00, 0.00, -0.00, -1.00, 253.7, 436.0)"> </text><text xml:space="preserve" font-family="TrebuchetMS" font-size="36.0" fill="#000000" transform="matrix(1.00, 0.00, -0.00, -1.00, 264.6, 436.0)">F</text><text xml:space="preserve" font-family="TrebuchetMS" font-size="36.0" fill="#000000" transform="matrix(1.00, 0.00, -0.00, -1.00, 283.4, 436.0)">r</text><text xml:space="preserve" font-family="TrebuchetMS" font-size="36.0" fill="#000000" transform="matrix(1.00, 0.00, -0.00, -1.00, 297.4, 436.0)">o</text><text xml:space="preserve" font-family="TrebuchetMS" font-size="36.0" fill="#000000" transform="matrix(1.00, 0.00, -0.00, -1.00, 316.7, 436.0)">n</text><text xml:space="preserve" font-family="TrebuchetMS" font-size="36.0" fill="#000000" transform="matrix(1.00, 0.00, -0.00, -1.00, 336.4, 436.0)">t</text><text xml:space="preserve" font-family="TrebuchetMS" font-size="36.0" fill="#000000" transform="matrix(1.00, 0.00, -0.00, -1.00, 350.7, 436.0)">-</text><text xml:space="preserve" font-family="TrebuchetMS" font-size="36.0" fill="#000000" transform="matrix(1.00, 0.00, -0.00, -1.00, 363.9, 436.0)">E</text><text xml:space="preserve" font-family="TrebuchetMS" font-size="36.0" fill="#000000" transform="matrix(1.00, 0.00, -0.00, -1.00, 383.2, 436.0)">n</text><text xml:space="preserve" font-family="TrebuchetMS" font-size="36.0" fill="#000000" transform="matrix(1.00, 0.00, -0.00, -1.00, 402.9, 436.0)">d</text><text xml:space="preserve" font-family="TrebuchetMS" font-size="36.0" fill="#000000" transform="matrix(1.00, 0.00, -0.00, -1.00, 423.0, 436.0)"> </text><text xml:space="preserve" font-family="TrebuchetMS" font-size="36.0" fill="#000000" transform="matrix(1.00, 0.00, -0.00, -1.00, 433.8, 436.0)">C</text><text xml:space="preserve" font-family="TrebuchetMS" font-size="36.0" fill="#000000" transform="matrix(1.00, 0.00, -0.00, -1.00, 455.4, 436.0)">o</text><text xml:space="preserve" font-family="TrebuchetMS" font-size="36.0" fill="#000000" transform="matrix(1.00, 0.00, -0.00, -1.00, 474.7, 436.0)">n</text><text xml:space="preserve" font-family="TrebuchetMS" font-size="36.0" fill="#000000" transform="matrix(1.00, 0.00, -0.00, -1.00, 494.4, 436.0)">c</text><text xml:space="preserve" font-family="TrebuchetMS" font-size="36.0" fill="#000000" transform="matrix(1.00, 0.00, -0.00, -1.00, 512.2, 436.0)">e</text><text xml:space="preserve" font-family="TrebuchetMS" font-size="36.0" fill="#000000" transform="matrix(1.00, 0.00, -0.00, -1.00, 531.9, 436.0)">p</text><text xml:space="preserve" font-family="TrebuchetMS" font-size="36.0" fill="#000000" transform="matrix(1.00, 0.00, -0.00, -1.00, 551.9, 436.0)">t</text><text xml:space="preserve" font-family="TrebuchetMS" font-size="36.0" fill="#000000" transform="matrix(1.00, 0.00, -0.00, -1.00, 566.2, 436.0)">s</text><image xlink:href="../../5505E15E-7B3A-470E-B60C-D2B54F8D0FCD/assets/C405963E5486B0D5F75BC4B009E3BBD4.png" width="230.00" height="307.00" transform="matrix(1.00, 0.00, -0.00, -1.00, 472.0, 408.0)"></image></g></svg>