<?xml version="1.0" encoding="UTF-8" standalone="no"?><svg xmlns="http://www.w3.org/2000/svg" xmlns:xlink="http://www.w3.org/1999/xlink" clip-rule="evenodd" stroke-miterlimit="4.00" viewBox="0 0 720 540"><desc>SVG generated by Keynote</desc><defs></defs><g transform="matrix(1.00, 0.00, -0.00, -1.00, 0.0, 540.0)"><g><clipPath id="clip-74"><path d="M 0.0 540.0 L 720.0 540.0 L 720.0 0.0 L 0.0 0.0 Z M 0.0 540.0 "></path></clipPath><g clip-path="url(#clip-74)"><image xlink:href="../../D4C2A304-6AEB-4EE1-82FF-F06C5FD3A0CF/assets/0188245E957EEFBAE5108680EFA80732.jpeg" width="720.00" height="576.00" transform="matrix(1.00, 0.00, -0.00, -0.94, 0.0, 540.0)"></image></g></g><text xml:space="preserve" font-family="TrebuchetMS" font-size="36.0" fill="#000000" transform="matrix(1.00, 0.00, -0.00, -1.00, 28.0, 431.0)">S</text><text xml:space="preserve" font-family="TrebuchetMS" font-size="36.0" fill="#000000" transform="matrix(1.00, 0.00, -0.00, -1.00, 45.3, 431.0)">c</text><text xml:space="preserve" font-family="TrebuchetMS" font-size="36.0" fill="#000000" transform="matrix(1.00, 0.00, -0.00, -1.00, 63.1, 431.0)">a</text><text xml:space="preserve" font-family="TrebuchetMS" font-size="36.0" fill="#000000" transform="matrix(1.00, 0.00, -0.00, -1.00, 82.1, 431.0)">f</text><text xml:space="preserve" font-family="TrebuchetMS" font-size="36.0" fill="#000000" transform="matrix(1.00, 0.00, -0.00, -1.00, 95.4, 431.0)">f</text><text xml:space="preserve" font-family="TrebuchetMS" font-size="36.0" fill="#000000" transform="matrix(1.00, 0.00, -0.00, -1.00, 108.7, 431.0)">o</text><text xml:space="preserve" font-family="TrebuchetMS" font-size="36.0" fill="#000000" transform="matrix(1.00, 0.00, -0.00, -1.00, 128.0, 431.0)">l</text><text xml:space="preserve" font-family="TrebuchetMS" font-size="36.0" fill="#000000" transform="matrix(1.00, 0.00, -0.00, -1.00, 138.6, 431.0)">d</text><text xml:space="preserve" font-family="TrebuchetMS" font-size="36.0" fill="#000000" transform="matrix(1.00, 0.00, -0.00, -1.00, 158.6, 431.0)">i</text><text xml:space="preserve" font-family="TrebuchetMS" font-size="36.0" fill="#000000" transform="matrix(1.00, 0.00, -0.00, -1.00, 168.9, 431.0)">n</text><text xml:space="preserve" font-family="TrebuchetMS" font-size="36.0" fill="#000000" transform="matrix(1.00, 0.00, -0.00, -1.00, 188.6, 431.0)">g</text><text xml:space="preserve" font-family="TrebuchetMS" font-size="36.0" fill="#000000" transform="matrix(1.00, 0.00, -0.00, -1.00, 206.7, 431.0)"> </text><text xml:space="preserve" font-family="TrebuchetMS" font-size="36.0" fill="#000000" transform="matrix(1.00, 0.00, -0.00, -1.00, 217.5, 431.0)">a</text><text xml:space="preserve" font-family="TrebuchetMS" font-size="36.0" fill="#000000" transform="matrix(1.00, 0.00, -0.00, -1.00, 236.4, 431.0)">n</text><text xml:space="preserve" font-family="TrebuchetMS" font-size="36.0" fill="#000000" transform="matrix(1.00, 0.00, -0.00, -1.00, 256.1, 431.0)"> </text><text xml:space="preserve" font-family="TrebuchetMS" font-size="36.0" fill="#000000" transform="matrix(1.00, 0.00, -0.00, -1.00, 265.0, 431.0)">A</text><text xml:space="preserve" font-family="TrebuchetMS" font-size="36.0" fill="#000000" transform="matrix(1.00, 0.00, -0.00, -1.00, 286.2, 431.0)">p</text><text xml:space="preserve" font-family="TrebuchetMS" font-size="36.0" fill="#000000" transform="matrix(1.00, 0.00, -0.00, -1.00, 306.3, 431.0)">p</text><text xml:space="preserve" font-family="TrebuchetMS" font-size="36.0" fill="#000000" transform="matrix(1.00, 0.00, -0.00, -1.00, 326.3, 431.0)">’</text><text xml:space="preserve" font-family="TrebuchetMS" font-size="36.0" fill="#000000" transform="matrix(1.00, 0.00, -0.00, -1.00, 337.1, 431.0)">s</text><text xml:space="preserve" font-family="TrebuchetMS" font-size="36.0" fill="#000000" transform="matrix(1.00, 0.00, -0.00, -1.00, 351.7, 431.0)"> </text><text xml:space="preserve" font-family="TrebuchetMS" font-size="36.0" fill="#000000" transform="matrix(1.00, 0.00, -0.00, -1.00, 362.5, 431.0)">O</text><text xml:space="preserve" font-family="TrebuchetMS" font-size="36.0" fill="#000000" transform="matrix(1.00, 0.00, -0.00, -1.00, 386.8, 431.0)">D</text><text xml:space="preserve" font-family="TrebuchetMS" font-size="36.0" fill="#000000" transform="matrix(1.00, 0.00, -0.00, -1.00, 408.9, 431.0)">P</text><text xml:space="preserve" font-family="TrebuchetMS" font-size="36.0" fill="#000000" transform="matrix(1.00, 0.00, -0.00, -1.00, 428.3, 431.0)"> </text><text xml:space="preserve" font-family="TrebuchetMS" font-size="36.0" fill="#000000" transform="matrix(1.00, 0.00, -0.00, -1.00, 439.1, 431.0)">(</text><text xml:space="preserve" font-family="TrebuchetMS" font-size="36.0" fill="#000000" transform="matrix(1.00, 0.00, -0.00, -1.00, 452.3, 431.0)">g</text><text xml:space="preserve" font-family="TrebuchetMS" font-size="36.0" fill="#000000" transform="matrix(1.00, 0.00, -0.00, -1.00, 470.4, 431.0)">e</text><text xml:space="preserve" font-family="TrebuchetMS" font-size="36.0" fill="#000000" transform="matrix(1.00, 0.00, -0.00, -1.00, 490.1, 431.0)">n</text><text xml:space="preserve" font-family="TrebuchetMS" font-size="36.0" fill="#000000" transform="matrix(1.00, 0.00, -0.00, -1.00, 509.8, 431.0)">e</text><text xml:space="preserve" font-family="TrebuchetMS" font-size="36.0" fill="#000000" transform="matrix(1.00, 0.00, -0.00, -1.00, 529.4, 431.0)">r</text><text xml:space="preserve" font-family="TrebuchetMS" font-size="36.0" fill="#000000" transform="matrix(1.00, 0.00, -0.00, -1.00, 543.4, 431.0)">a</text><text xml:space="preserve" font-family="TrebuchetMS" font-size="36.0" fill="#000000" transform="matrix(1.00, 0.00, -0.00, -1.00, 562.3, 431.0)">t</text><text xml:space="preserve" font-family="TrebuchetMS" font-size="36.0" fill="#000000" transform="matrix(1.00, 0.00, -0.00, -1.00, 576.6, 431.0)">o</text><text xml:space="preserve" font-family="TrebuchetMS" font-size="36.0" fill="#000000" transform="matrix(1.00, 0.00, -0.00, -1.00, 595.9, 431.0)">r</text><text xml:space="preserve" font-family="TrebuchetMS" font-size="36.0" fill="#000000" transform="matrix(1.00, 0.00, -0.00, -1.00, 609.9, 431.0)">-</text><text xml:space="preserve" font-family="TrebuchetMS" font-size="36.0" fill="#000000" transform="matrix(1.00, 0.00, -0.00, -1.00, 623.1, 431.0)">x</text><text xml:space="preserve" font-family="TrebuchetMS" font-size="36.0" fill="#000000" transform="matrix(1.00, 0.00, -0.00, -1.00, 641.1, 431.0)">s</text><text xml:space="preserve" font-family="TrebuchetMS" font-size="36.0" fill="#000000" transform="matrix(1.00, 0.00, -0.00, -1.00, 655.7, 431.0)">p</text><text xml:space="preserve" font-family="TrebuchetMS" font-size="36.0" fill="#000000" transform="matrix(1.00, 0.00, -0.00, -1.00, 675.8, 431.0)">)</text><image xlink:href="../../E1292AC2-6833-458A-B45A-ADC70E55B81C/assets/09FE6AD2914CA91EFFFC995EF9645CC5.png" width="720.00" height="409.00" transform="matrix(1.00, 0.00, -0.00, -1.00, 0.0, 415.0)"></image></g></svg>