<?xml version="1.0" encoding="UTF-8" standalone="no"?><svg xmlns="http://www.w3.org/2000/svg" xmlns:xlink="http://www.w3.org/1999/xlink" clip-rule="evenodd" stroke-miterlimit="4.00" viewBox="0 0 720 540"><desc>SVG generated by Keynote</desc><defs></defs><g transform="matrix(1.00, 0.00, -0.00, -1.00, 0.0, 540.0)"><g><clipPath id="clip-13"><path d="M 0.0 540.0 L 720.0 540.0 L 720.0 0.0 L 0.0 0.0 Z M 0.0 540.0 "></path></clipPath><g clip-path="url(#clip-13)"><image xlink:href="../../D4C2A304-6AEB-4EE1-82FF-F06C5FD3A0CF/assets/0188245E957EEFBAE5108680EFA80732.jpeg" width="720.00" height="576.00" transform="matrix(1.00, 0.00, -0.00, -0.94, 0.0, 540.0)"></image></g></g><text xml:space="preserve" font-family="ArialMT" font-size="24.0" fill="#000000" transform="matrix(1.00, 0.00, -0.00, -1.00, 21.6, 381.9)">•</text><text xml:space="preserve" font-family="TrebuchetMS" font-size="24.0" fill="#000000" transform="matrix(1.00, 0.00, -0.00, -1.00, 30.0, 382.0)">W</text><text xml:space="preserve" font-family="TrebuchetMS" font-size="24.0" fill="#000000" transform="matrix(1.00, 0.00, -0.00, -1.00, 50.5, 382.0)">h</text><text xml:space="preserve" font-family="TrebuchetMS" font-size="24.0" fill="#000000" transform="matrix(1.00, 0.00, -0.00, -1.00, 63.6, 382.0)">a</text><text xml:space="preserve" font-family="TrebuchetMS" font-size="24.0" fill="#000000" transform="matrix(1.00, 0.00, -0.00, -1.00, 76.2, 382.0)">t</text><text xml:space="preserve" font-family="TrebuchetMS" font-size="24.0" fill="#000000" transform="matrix(1.00, 0.00, -0.00, -1.00, 85.7, 382.0)"> </text><text xml:space="preserve" font-family="TrebuchetMS" font-size="24.0" fill="#000000" transform="matrix(1.00, 0.00, -0.00, -1.00, 92.9, 382.0)">a</text><text xml:space="preserve" font-family="TrebuchetMS" font-size="24.0" fill="#000000" transform="matrix(1.00, 0.00, -0.00, -1.00, 105.5, 382.0)">n</text><text xml:space="preserve" font-family="TrebuchetMS" font-size="24.0" fill="#000000" transform="matrix(1.00, 0.00, -0.00, -1.00, 118.7, 382.0)">d</text><text xml:space="preserve" font-family="TrebuchetMS" font-size="24.0" fill="#000000" transform="matrix(1.00, 0.00, -0.00, -1.00, 132.0, 382.0)"> </text><text xml:space="preserve" font-family="TrebuchetMS" font-size="24.0" fill="#000000" transform="matrix(1.00, 0.00, -0.00, -1.00, 139.3, 382.0)">W</text><text xml:space="preserve" font-family="TrebuchetMS" font-size="24.0" fill="#000000" transform="matrix(1.00, 0.00, -0.00, -1.00, 159.7, 382.0)">h</text><text xml:space="preserve" font-family="TrebuchetMS" font-size="24.0" fill="#000000" transform="matrix(1.00, 0.00, -0.00, -1.00, 172.8, 382.0)">y</text><text xml:space="preserve" font-family="TrebuchetMS" font-size="24.0" fill="#000000" transform="matrix(1.00, 0.00, -0.00, -1.00, 184.6, 382.0)"> </text><text xml:space="preserve" font-family="ArialMT" font-size="24.0" fill="#000000" transform="matrix(1.00, 0.00, -0.00, -1.00, 21.6, 349.9)">•</text><text xml:space="preserve" font-family="TrebuchetMS" font-size="24.0" fill="#000000" transform="matrix(1.00, 0.00, -0.00, -1.00, 30.0, 350.0)">H</text><text xml:space="preserve" font-family="TrebuchetMS" font-size="24.0" fill="#000000" transform="matrix(1.00, 0.00, -0.00, -1.00, 45.7, 350.0)">o</text><text xml:space="preserve" font-family="TrebuchetMS" font-size="24.0" fill="#000000" transform="matrix(1.00, 0.00, -0.00, -1.00, 58.6, 350.0)">w</text><text xml:space="preserve" font-family="TrebuchetMS" font-size="24.0" fill="#000000" transform="matrix(1.00, 0.00, -0.00, -1.00, 76.4, 350.0)">?</text><text xml:space="preserve" font-family="TrebuchetMS" font-size="24.0" fill="#000000" transform="matrix(1.00, 0.00, -0.00, -1.00, 85.3, 350.0)"> </text><text xml:space="preserve" font-family="TrebuchetMS" font-size="24.0" fill="#000000" transform="matrix(1.00, 0.00, -0.00, -1.00, 92.5, 350.0)">(</text><text xml:space="preserve" font-family="TrebuchetMS" font-size="24.0" fill="#000000" transform="matrix(1.00, 0.00, -0.00, -1.00, 101.3, 350.0)">i</text><text xml:space="preserve" font-family="TrebuchetMS" font-size="24.0" fill="#000000" transform="matrix(1.00, 0.00, -0.00, -1.00, 108.2, 350.0)">n</text><text xml:space="preserve" font-family="TrebuchetMS" font-size="24.0" fill="#000000" transform="matrix(1.00, 0.00, -0.00, -1.00, 121.3, 350.0)"> </text><text xml:space="preserve" font-family="TrebuchetMS" font-size="24.0" fill="#000000" transform="matrix(1.00, 0.00, -0.00, -1.00, 128.5, 350.0)">t</text><text xml:space="preserve" font-family="TrebuchetMS" font-size="24.0" fill="#000000" transform="matrix(1.00, 0.00, -0.00, -1.00, 138.0, 350.0)">h</text><text xml:space="preserve" font-family="TrebuchetMS" font-size="24.0" fill="#000000" transform="matrix(1.00, 0.00, -0.00, -1.00, 151.2, 350.0)">e</text><text xml:space="preserve" font-family="TrebuchetMS" font-size="24.0" fill="#000000" transform="matrix(1.00, 0.00, -0.00, -1.00, 164.3, 350.0)"> </text><text xml:space="preserve" font-family="TrebuchetMS" font-size="24.0" fill="#000000" transform="matrix(1.00, 0.00, -0.00, -1.00, 170.2, 350.0)">A</text><text xml:space="preserve" font-family="TrebuchetMS" font-size="24.0" fill="#000000" transform="matrix(1.00, 0.00, -0.00, -1.00, 184.3, 350.0)">p</text><text xml:space="preserve" font-family="TrebuchetMS" font-size="24.0" fill="#000000" transform="matrix(1.00, 0.00, -0.00, -1.00, 197.7, 350.0)">p</text><text xml:space="preserve" font-family="TrebuchetMS" font-size="24.0" fill="#000000" transform="matrix(1.00, 0.00, -0.00, -1.00, 211.1, 350.0)">)</text><text xml:space="preserve" font-family="TrebuchetMS" font-size="24.0" fill="#000000" transform="matrix(1.00, 0.00, -0.00, -1.00, 219.8, 350.0)"> </text><text xml:space="preserve" font-family="ArialMT" font-size="22.0" fill="#000071" transform="matrix(1.00, 0.00, -0.00, -1.00, 52.6, 319.4)">•</text><text xml:space="preserve" font-family="TrebuchetMS" font-size="22.0" fill="#000071" transform="matrix(1.00, 0.00, -0.00, -1.00, 60.0, 319.0)">S</text><text xml:space="preserve" font-family="TrebuchetMS" font-size="22.0" fill="#000071" transform="matrix(1.00, 0.00, -0.00, -1.00, 70.6, 319.0)">p</text><text xml:space="preserve" font-family="TrebuchetMS" font-size="22.0" fill="#000071" transform="matrix(1.00, 0.00, -0.00, -1.00, 82.8, 319.0)">l</text><text xml:space="preserve" font-family="TrebuchetMS" font-size="22.0" fill="#000071" transform="matrix(1.00, 0.00, -0.00, -1.00, 89.3, 319.0)">i</text><text xml:space="preserve" font-family="TrebuchetMS" font-size="22.0" fill="#000071" transform="matrix(1.00, 0.00, -0.00, -1.00, 95.6, 319.0)">t</text><text xml:space="preserve" font-family="TrebuchetMS" font-size="22.0" fill="#000071" transform="matrix(1.00, 0.00, -0.00, -1.00, 104.3, 319.0)"> </text><text xml:space="preserve" font-family="TrebuchetMS" font-size="22.0" fill="#000071" transform="matrix(1.00, 0.00, -0.00, -1.00, 111.0, 319.0)">f</text><text xml:space="preserve" font-family="TrebuchetMS" font-size="22.0" fill="#000071" transform="matrix(1.00, 0.00, -0.00, -1.00, 119.1, 319.0)">r</text><text xml:space="preserve" font-family="TrebuchetMS" font-size="22.0" fill="#000071" transform="matrix(1.00, 0.00, -0.00, -1.00, 127.6, 319.0)">o</text><text xml:space="preserve" font-family="TrebuchetMS" font-size="22.0" fill="#000071" transform="matrix(1.00, 0.00, -0.00, -1.00, 139.4, 319.0)">n</text><text xml:space="preserve" font-family="TrebuchetMS" font-size="22.0" fill="#000071" transform="matrix(1.00, 0.00, -0.00, -1.00, 151.5, 319.0)">t</text><text xml:space="preserve" font-family="TrebuchetMS" font-size="22.0" fill="#000071" transform="matrix(1.00, 0.00, -0.00, -1.00, 160.2, 319.0)">-</text><text xml:space="preserve" font-family="TrebuchetMS" font-size="22.0" fill="#000071" transform="matrix(1.00, 0.00, -0.00, -1.00, 168.3, 319.0)">e</text><text xml:space="preserve" font-family="TrebuchetMS" font-size="22.0" fill="#000071" transform="matrix(1.00, 0.00, -0.00, -1.00, 180.3, 319.0)">n</text><text xml:space="preserve" font-family="TrebuchetMS" font-size="22.0" fill="#000071" transform="matrix(1.00, 0.00, -0.00, -1.00, 192.3, 319.0)">d</text><text xml:space="preserve" font-family="TrebuchetMS" font-size="22.0" fill="#000071" transform="matrix(1.00, 0.00, -0.00, -1.00, 204.6, 319.0)"> </text><text xml:space="preserve" font-family="TrebuchetMS" font-size="22.0" fill="#000071" transform="matrix(1.00, 0.00, -0.00, -1.00, 211.2, 319.0)">a</text><text xml:space="preserve" font-family="TrebuchetMS" font-size="22.0" fill="#000071" transform="matrix(1.00, 0.00, -0.00, -1.00, 222.8, 319.0)">n</text><text xml:space="preserve" font-family="TrebuchetMS" font-size="22.0" fill="#000071" transform="matrix(1.00, 0.00, -0.00, -1.00, 234.8, 319.0)">d</text><text xml:space="preserve" font-family="TrebuchetMS" font-size="22.0" fill="#000071" transform="matrix(1.00, 0.00, -0.00, -1.00, 247.1, 319.0)"> </text><text xml:space="preserve" font-family="TrebuchetMS" font-size="22.0" fill="#000071" transform="matrix(1.00, 0.00, -0.00, -1.00, 253.7, 319.0)">b</text><text xml:space="preserve" font-family="TrebuchetMS" font-size="22.0" fill="#000071" transform="matrix(1.00, 0.00, -0.00, -1.00, 266.0, 319.0)">a</text><text xml:space="preserve" font-family="TrebuchetMS" font-size="22.0" fill="#000071" transform="matrix(1.00, 0.00, -0.00, -1.00, 277.5, 319.0)">c</text><text xml:space="preserve" font-family="TrebuchetMS" font-size="22.0" fill="#000071" transform="matrix(1.00, 0.00, -0.00, -1.00, 288.4, 319.0)">k</text><text xml:space="preserve" font-family="TrebuchetMS" font-size="22.0" fill="#000071" transform="matrix(1.00, 0.00, -0.00, -1.00, 299.5, 319.0)">-</text><text xml:space="preserve" font-family="TrebuchetMS" font-size="22.0" fill="#000071" transform="matrix(1.00, 0.00, -0.00, -1.00, 307.6, 319.0)">e</text><text xml:space="preserve" font-family="TrebuchetMS" font-size="22.0" fill="#000071" transform="matrix(1.00, 0.00, -0.00, -1.00, 319.6, 319.0)">n</text><text xml:space="preserve" font-family="TrebuchetMS" font-size="22.0" fill="#000071" transform="matrix(1.00, 0.00, -0.00, -1.00, 331.6, 319.0)">d</text><text xml:space="preserve" font-family="TrebuchetMS" font-size="22.0" fill="#000071" transform="matrix(1.00, 0.00, -0.00, -1.00, 343.9, 319.0)"> </text><text xml:space="preserve" font-family="TrebuchetMS" font-size="22.0" fill="#000071" transform="matrix(1.00, 0.00, -0.00, -1.00, 350.5, 319.0)">(</text><text xml:space="preserve" font-family="TrebuchetMS" font-size="22.0" fill="#000071" transform="matrix(1.00, 0.00, -0.00, -1.00, 358.6, 319.0)">R</text><text xml:space="preserve" font-family="TrebuchetMS" font-size="22.0" fill="#000071" transform="matrix(1.00, 0.00, -0.00, -1.00, 371.4, 319.0)">E</text><text xml:space="preserve" font-family="TrebuchetMS" font-size="22.0" fill="#000071" transform="matrix(1.00, 0.00, -0.00, -1.00, 383.2, 319.0)">S</text><text xml:space="preserve" font-family="TrebuchetMS" font-size="22.0" fill="#000071" transform="matrix(1.00, 0.00, -0.00, -1.00, 393.8, 319.0)">T</text><text xml:space="preserve" font-family="TrebuchetMS" font-size="22.0" fill="#000071" transform="matrix(1.00, 0.00, -0.00, -1.00, 406.5, 319.0)">f</text><text xml:space="preserve" font-family="TrebuchetMS" font-size="22.0" fill="#000071" transform="matrix(1.00, 0.00, -0.00, -1.00, 414.7, 319.0)">u</text><text xml:space="preserve" font-family="TrebuchetMS" font-size="22.0" fill="#000071" transform="matrix(1.00, 0.00, -0.00, -1.00, 426.7, 319.0)">l</text><text xml:space="preserve" font-family="TrebuchetMS" font-size="22.0" fill="#000071" transform="matrix(1.00, 0.00, -0.00, -1.00, 433.2, 319.0)"> </text><text xml:space="preserve" font-family="TrebuchetMS" font-size="22.0" fill="#000071" transform="matrix(1.00, 0.00, -0.00, -1.00, 438.6, 319.0)">A</text><text xml:space="preserve" font-family="TrebuchetMS" font-size="22.0" fill="#000071" transform="matrix(1.00, 0.00, -0.00, -1.00, 451.6, 319.0)">P</text><text xml:space="preserve" font-family="TrebuchetMS" font-size="22.0" fill="#000071" transform="matrix(1.00, 0.00, -0.00, -1.00, 463.8, 319.0)">I</text><text xml:space="preserve" font-family="TrebuchetMS" font-size="22.0" fill="#000071" transform="matrix(1.00, 0.00, -0.00, -1.00, 470.0, 319.0)">s</text><text xml:space="preserve" font-family="TrebuchetMS" font-size="22.0" fill="#000071" transform="matrix(1.00, 0.00, -0.00, -1.00, 478.9, 319.0)">)</text><text xml:space="preserve" font-family="TrebuchetMS" font-size="22.0" fill="#000071" transform="matrix(1.00, 0.00, -0.00, -1.00, 486.8, 319.0)"> </text><text xml:space="preserve" font-family="ArialMT" font-size="20.0" fill="#000000" transform="matrix(1.00, 0.00, -0.00, -1.00, 84.6, 292.0)">•</text><text xml:space="preserve" font-family="TrebuchetMS" font-size="20.0" fill="#000000" transform="matrix(1.00, 0.00, -0.00, -1.00, 92.0, 292.0)">H</text><text xml:space="preserve" font-family="TrebuchetMS" font-size="20.0" fill="#000000" transform="matrix(1.00, 0.00, -0.00, -1.00, 105.1, 292.0)">t</text><text xml:space="preserve" font-family="TrebuchetMS" font-size="20.0" fill="#000000" transform="matrix(1.00, 0.00, -0.00, -1.00, 113.0, 292.0)">t</text><text xml:space="preserve" font-family="TrebuchetMS" font-size="20.0" fill="#000000" transform="matrix(1.00, 0.00, -0.00, -1.00, 121.0, 292.0)">p</text><text xml:space="preserve" font-family="TrebuchetMS" font-size="20.0" fill="#000000" transform="matrix(1.00, 0.00, -0.00, -1.00, 132.1, 292.0)">S</text><text xml:space="preserve" font-family="TrebuchetMS" font-size="20.0" fill="#000000" transform="matrix(1.00, 0.00, -0.00, -1.00, 141.7, 292.0)">e</text><text xml:space="preserve" font-family="TrebuchetMS" font-size="20.0" fill="#000000" transform="matrix(1.00, 0.00, -0.00, -1.00, 152.7, 292.0)">r</text><text xml:space="preserve" font-family="TrebuchetMS" font-size="20.0" fill="#000000" transform="matrix(1.00, 0.00, -0.00, -1.00, 160.4, 292.0)">v</text><text xml:space="preserve" font-family="TrebuchetMS" font-size="20.0" fill="#000000" transform="matrix(1.00, 0.00, -0.00, -1.00, 170.2, 292.0)">l</text><text xml:space="preserve" font-family="TrebuchetMS" font-size="20.0" fill="#000000" transform="matrix(1.00, 0.00, -0.00, -1.00, 176.1, 292.0)">e</text><text xml:space="preserve" font-family="TrebuchetMS" font-size="20.0" fill="#000000" transform="matrix(1.00, 0.00, -0.00, -1.00, 187.0, 292.0)">t</text><text xml:space="preserve" font-family="TrebuchetMS" font-size="20.0" fill="#000000" transform="matrix(1.00, 0.00, -0.00, -1.00, 194.9, 292.0)"> </text><text xml:space="preserve" font-family="ArialMT" font-size="20.0" fill="#000000" transform="matrix(1.00, 0.00, -0.00, -1.00, 84.6, 265.0)">•</text><text xml:space="preserve" font-family="TrebuchetMS" font-size="20.0" fill="#000000" transform="matrix(1.00, 0.00, -0.00, -1.00, 92.0, 265.0)">O</text><text xml:space="preserve" font-family="TrebuchetMS" font-size="20.0" fill="#000000" transform="matrix(1.00, 0.00, -0.00, -1.00, 105.5, 265.0)">S</text><text xml:space="preserve" font-family="TrebuchetMS" font-size="20.0" fill="#000000" transform="matrix(1.00, 0.00, -0.00, -1.00, 115.1, 265.0)">G</text><text xml:space="preserve" font-family="TrebuchetMS" font-size="20.0" fill="#000000" transform="matrix(1.00, 0.00, -0.00, -1.00, 128.6, 265.0)">i</text><text xml:space="preserve" font-family="TrebuchetMS" font-size="20.0" fill="#000000" transform="matrix(1.00, 0.00, -0.00, -1.00, 134.3, 265.0)"> </text><text xml:space="preserve" font-family="TrebuchetMS" font-size="20.0" fill="#000000" transform="matrix(1.00, 0.00, -0.00, -1.00, 140.4, 265.0)">p</text><text xml:space="preserve" font-family="TrebuchetMS" font-size="20.0" fill="#000000" transform="matrix(1.00, 0.00, -0.00, -1.00, 151.5, 265.0)">l</text><text xml:space="preserve" font-family="TrebuchetMS" font-size="20.0" fill="#000000" transform="matrix(1.00, 0.00, -0.00, -1.00, 157.4, 265.0)">u</text><text xml:space="preserve" font-family="TrebuchetMS" font-size="20.0" fill="#000000" transform="matrix(1.00, 0.00, -0.00, -1.00, 168.3, 265.0)">g</text><text xml:space="preserve" font-family="TrebuchetMS" font-size="20.0" fill="#000000" transform="matrix(1.00, 0.00, -0.00, -1.00, 178.4, 265.0)">i</text><text xml:space="preserve" font-family="TrebuchetMS" font-size="20.0" fill="#000000" transform="matrix(1.00, 0.00, -0.00, -1.00, 184.1, 265.0)">n</text><text xml:space="preserve" font-family="TrebuchetMS" font-size="20.0" fill="#000000" transform="matrix(1.00, 0.00, -0.00, -1.00, 195.0, 265.0)"> </text><text xml:space="preserve" font-family="TrebuchetMS" font-size="20.0" fill="#000000" transform="matrix(1.00, 0.00, -0.00, -1.00, 201.1, 265.0)">(</text><text xml:space="preserve" font-family="TrebuchetMS" font-size="20.0" fill="#000000" transform="matrix(1.00, 0.00, -0.00, -1.00, 208.4, 265.0)">J</text><text xml:space="preserve" font-family="TrebuchetMS" font-size="20.0" fill="#000000" transform="matrix(1.00, 0.00, -0.00, -1.00, 217.9, 265.0)">A</text><text xml:space="preserve" font-family="TrebuchetMS" font-size="20.0" fill="#000000" transform="matrix(1.00, 0.00, -0.00, -1.00, 229.7, 265.0)">X</text><text xml:space="preserve" font-family="TrebuchetMS" font-size="20.0" fill="#000000" transform="matrix(1.00, 0.00, -0.00, -1.00, 240.8, 265.0)">-</text><text xml:space="preserve" font-family="TrebuchetMS" font-size="20.0" fill="#000000" transform="matrix(1.00, 0.00, -0.00, -1.00, 248.2, 265.0)">R</text><text xml:space="preserve" font-family="TrebuchetMS" font-size="20.0" fill="#000000" transform="matrix(1.00, 0.00, -0.00, -1.00, 259.8, 265.0)">S</text><text xml:space="preserve" font-family="TrebuchetMS" font-size="20.0" fill="#000000" transform="matrix(1.00, 0.00, -0.00, -1.00, 269.4, 265.0)">)</text><text xml:space="preserve" font-family="TrebuchetMS" font-size="20.0" fill="#000000" transform="matrix(1.00, 0.00, -0.00, -1.00, 276.8, 265.0)"> </text><text xml:space="preserve" font-family="ArialMT" font-size="20.0" fill="#000000" transform="matrix(1.00, 0.00, -0.00, -1.00, 84.6, 238.0)">•</text><text xml:space="preserve" font-family="TrebuchetMS" font-size="20.0" fill="#000000" transform="matrix(1.00, 0.00, -0.00, -1.00, 92.0, 238.0)">X</text><text xml:space="preserve" font-family="TrebuchetMS" font-size="20.0" fill="#000000" transform="matrix(1.00, 0.00, -0.00, -1.00, 103.1, 238.0)">P</text><text xml:space="preserve" font-family="TrebuchetMS" font-size="20.0" fill="#000000" transform="matrix(1.00, 0.00, -0.00, -1.00, 113.3, 238.0)">a</text><text xml:space="preserve" font-family="TrebuchetMS" font-size="20.0" fill="#000000" transform="matrix(1.00, 0.00, -0.00, -1.00, 123.8, 238.0)">g</text><text xml:space="preserve" font-family="TrebuchetMS" font-size="20.0" fill="#000000" transform="matrix(1.00, 0.00, -0.00, -1.00, 133.9, 238.0)">e</text><text xml:space="preserve" font-family="TrebuchetMS" font-size="20.0" fill="#000000" transform="matrix(1.00, 0.00, -0.00, -1.00, 144.8, 238.0)"> </text><text xml:space="preserve" font-family="TrebuchetMS" font-size="20.0" fill="#000000" transform="matrix(1.00, 0.00, -0.00, -1.00, 150.8, 238.0)">w</text><text xml:space="preserve" font-family="TrebuchetMS" font-size="20.0" fill="#000000" transform="matrix(1.00, 0.00, -0.00, -1.00, 165.7, 238.0)">/</text><text xml:space="preserve" font-family="TrebuchetMS" font-size="20.0" fill="#000000" transform="matrix(1.00, 0.00, -0.00, -1.00, 176.2, 238.0)"> </text><text xml:space="preserve" font-family="TrebuchetMS" font-size="20.0" fill="#000000" transform="matrix(1.00, 0.00, -0.00, -1.00, 182.2, 238.0)">x</text><text xml:space="preserve" font-family="TrebuchetMS" font-size="20.0" fill="#000000" transform="matrix(1.00, 0.00, -0.00, -1.00, 192.3, 238.0)">e</text><text xml:space="preserve" font-family="TrebuchetMS" font-size="20.0" fill="#000000" transform="matrix(1.00, 0.00, -0.00, -1.00, 203.2, 238.0)">:</text><text xml:space="preserve" font-family="TrebuchetMS" font-size="20.0" fill="#000000" transform="matrix(1.00, 0.00, -0.00, -1.00, 210.5, 238.0)">c</text><text xml:space="preserve" font-family="TrebuchetMS" font-size="20.0" fill="#000000" transform="matrix(1.00, 0.00, -0.00, -1.00, 220.4, 238.0)">u</text><text xml:space="preserve" font-family="TrebuchetMS" font-size="20.0" fill="#000000" transform="matrix(1.00, 0.00, -0.00, -1.00, 231.4, 238.0)">s</text><text xml:space="preserve" font-family="TrebuchetMS" font-size="20.0" fill="#000000" transform="matrix(1.00, 0.00, -0.00, -1.00, 239.5, 238.0)">t</text><text xml:space="preserve" font-family="TrebuchetMS" font-size="20.0" fill="#000000" transform="matrix(1.00, 0.00, -0.00, -1.00, 247.4, 238.0)">o</text><text xml:space="preserve" font-family="TrebuchetMS" font-size="20.0" fill="#000000" transform="matrix(1.00, 0.00, -0.00, -1.00, 258.1, 238.0)">m</text><text xml:space="preserve" font-family="TrebuchetMS" font-size="20.0" fill="#000000" transform="matrix(1.00, 0.00, -0.00, -1.00, 274.7, 238.0)">R</text><text xml:space="preserve" font-family="TrebuchetMS" font-size="20.0" fill="#000000" transform="matrix(1.00, 0.00, -0.00, -1.00, 285.6, 238.0)">e</text><text xml:space="preserve" font-family="TrebuchetMS" font-size="20.0" fill="#000000" transform="matrix(1.00, 0.00, -0.00, -1.00, 296.5, 238.0)">s</text><text xml:space="preserve" font-family="TrebuchetMS" font-size="20.0" fill="#000000" transform="matrix(1.00, 0.00, -0.00, -1.00, 304.6, 238.0)">t</text><text xml:space="preserve" font-family="TrebuchetMS" font-size="20.0" fill="#000000" transform="matrix(1.00, 0.00, -0.00, -1.00, 312.5, 238.0)">S</text><text xml:space="preserve" font-family="TrebuchetMS" font-size="20.0" fill="#000000" transform="matrix(1.00, 0.00, -0.00, -1.00, 322.1, 238.0)">e</text><text xml:space="preserve" font-family="TrebuchetMS" font-size="20.0" fill="#000000" transform="matrix(1.00, 0.00, -0.00, -1.00, 333.0, 238.0)">r</text><text xml:space="preserve" font-family="TrebuchetMS" font-size="20.0" fill="#000000" transform="matrix(1.00, 0.00, -0.00, -1.00, 340.8, 238.0)">v</text><text xml:space="preserve" font-family="TrebuchetMS" font-size="20.0" fill="#000000" transform="matrix(1.00, 0.00, -0.00, -1.00, 350.6, 238.0)">i</text><text xml:space="preserve" font-family="TrebuchetMS" font-size="20.0" fill="#000000" transform="matrix(1.00, 0.00, -0.00, -1.00, 356.3, 238.0)">c</text><text xml:space="preserve" font-family="TrebuchetMS" font-size="20.0" fill="#000000" transform="matrix(1.00, 0.00, -0.00, -1.00, 366.2, 238.0)">e</text><text xml:space="preserve" font-family="TrebuchetMS" font-size="20.0" fill="#000000" transform="matrix(1.00, 0.00, -0.00, -1.00, 377.1, 238.0)"> </text><text xml:space="preserve" font-family="TrebuchetMS" font-size="20.0" fill="#000000" transform="matrix(1.00, 0.00, -0.00, -1.00, 383.2, 238.0)">(</text><text xml:space="preserve" font-family="TrebuchetMS" font-size="20.0" fill="#000000" transform="matrix(1.00, 0.00, -0.00, -1.00, 390.5, 238.0)">J</text><text xml:space="preserve" font-family="TrebuchetMS" font-size="20.0" fill="#000000" transform="matrix(1.00, 0.00, -0.00, -1.00, 400.0, 238.0)">a</text><text xml:space="preserve" font-family="TrebuchetMS" font-size="20.0" fill="#000000" transform="matrix(1.00, 0.00, -0.00, -1.00, 410.5, 238.0)">v</text><text xml:space="preserve" font-family="TrebuchetMS" font-size="20.0" fill="#000000" transform="matrix(1.00, 0.00, -0.00, -1.00, 420.3, 238.0)">a</text><text xml:space="preserve" font-family="TrebuchetMS" font-size="20.0" fill="#000000" transform="matrix(1.00, 0.00, -0.00, -1.00, 430.8, 238.0)"> </text><text xml:space="preserve" font-family="TrebuchetMS" font-size="20.0" fill="#000000" transform="matrix(1.00, 0.00, -0.00, -1.00, 436.9, 238.0)">o</text><text xml:space="preserve" font-family="TrebuchetMS" font-size="20.0" fill="#000000" transform="matrix(1.00, 0.00, -0.00, -1.00, 447.6, 238.0)">r</text><text xml:space="preserve" font-family="TrebuchetMS" font-size="20.0" fill="#000000" transform="matrix(1.00, 0.00, -0.00, -1.00, 455.4, 238.0)"> </text><text xml:space="preserve" font-family="TrebuchetMS" font-size="20.0" fill="#000000" transform="matrix(1.00, 0.00, -0.00, -1.00, 461.4, 238.0)">S</text><text xml:space="preserve" font-family="TrebuchetMS" font-size="20.0" fill="#000000" transform="matrix(1.00, 0.00, -0.00, -1.00, 471.0, 238.0)">S</text><text xml:space="preserve" font-family="TrebuchetMS" font-size="20.0" fill="#000000" transform="matrix(1.00, 0.00, -0.00, -1.00, 480.6, 238.0)">J</text><text xml:space="preserve" font-family="TrebuchetMS" font-size="20.0" fill="#000000" transform="matrix(1.00, 0.00, -0.00, -1.00, 490.2, 238.0)">S</text><text xml:space="preserve" font-family="TrebuchetMS" font-size="20.0" fill="#000000" transform="matrix(1.00, 0.00, -0.00, -1.00, 499.8, 238.0)">)</text><text xml:space="preserve" font-family="TrebuchetMS" font-size="20.0" fill="#000000" transform="matrix(1.00, 0.00, -0.00, -1.00, 507.1, 238.0)"> </text><text xml:space="preserve" font-family="ArialMT" font-size="20.0" fill="#000000" transform="matrix(1.00, 0.00, -0.00, -1.00, 84.6, 211.0)">•</text><text xml:space="preserve" font-family="TrebuchetMS" font-size="20.0" fill="#000000" transform="matrix(1.00, 0.00, -0.00, -1.00, 92.0, 211.0)">X</text><text xml:space="preserve" font-family="TrebuchetMS" font-size="20.0" fill="#000000" transform="matrix(1.00, 0.00, -0.00, -1.00, 103.1, 211.0)">A</text><text xml:space="preserve" font-family="TrebuchetMS" font-size="20.0" fill="#000000" transform="matrix(1.00, 0.00, -0.00, -1.00, 114.9, 211.0)">g</text><text xml:space="preserve" font-family="TrebuchetMS" font-size="20.0" fill="#000000" transform="matrix(1.00, 0.00, -0.00, -1.00, 125.0, 211.0)">e</text><text xml:space="preserve" font-family="TrebuchetMS" font-size="20.0" fill="#000000" transform="matrix(1.00, 0.00, -0.00, -1.00, 135.9, 211.0)">n</text><text xml:space="preserve" font-family="TrebuchetMS" font-size="20.0" fill="#000000" transform="matrix(1.00, 0.00, -0.00, -1.00, 146.8, 211.0)">t</text><text xml:space="preserve" font-family="TrebuchetMS" font-size="20.0" fill="#000000" transform="matrix(1.00, 0.00, -0.00, -1.00, 154.7, 211.0)"> </text><text xml:space="preserve" font-family="ArialMT" font-size="22.0" fill="#000071" transform="matrix(1.00, 0.00, -0.00, -1.00, 52.6, 185.4)">•</text><text xml:space="preserve" font-family="TrebuchetMS" font-size="22.0" fill="#000071" transform="matrix(1.00, 0.00, -0.00, -1.00, 60.0, 185.0)">B</text><text xml:space="preserve" font-family="TrebuchetMS" font-size="22.0" fill="#000071" transform="matrix(1.00, 0.00, -0.00, -1.00, 72.4, 185.0)">a</text><text xml:space="preserve" font-family="TrebuchetMS" font-size="22.0" fill="#000071" transform="matrix(1.00, 0.00, -0.00, -1.00, 84.0, 185.0)">c</text><text xml:space="preserve" font-family="TrebuchetMS" font-size="22.0" fill="#000071" transform="matrix(1.00, 0.00, -0.00, -1.00, 94.9, 185.0)">k</text><text xml:space="preserve" font-family="TrebuchetMS" font-size="22.0" fill="#000071" transform="matrix(1.00, 0.00, -0.00, -1.00, 106.0, 185.0)">-</text><text xml:space="preserve" font-family="TrebuchetMS" font-size="22.0" fill="#000071" transform="matrix(1.00, 0.00, -0.00, -1.00, 114.1, 185.0)">e</text><text xml:space="preserve" font-family="TrebuchetMS" font-size="22.0" fill="#000071" transform="matrix(1.00, 0.00, -0.00, -1.00, 126.1, 185.0)">n</text><text xml:space="preserve" font-family="TrebuchetMS" font-size="22.0" fill="#000071" transform="matrix(1.00, 0.00, -0.00, -1.00, 138.1, 185.0)">d</text><text xml:space="preserve" font-family="TrebuchetMS" font-size="22.0" fill="#000071" transform="matrix(1.00, 0.00, -0.00, -1.00, 150.4, 185.0)"> </text><text xml:space="preserve" font-family="TrebuchetMS" font-size="22.0" fill="#000071" transform="matrix(1.00, 0.00, -0.00, -1.00, 157.0, 185.0)">p</text><text xml:space="preserve" font-family="TrebuchetMS" font-size="22.0" fill="#000071" transform="matrix(1.00, 0.00, -0.00, -1.00, 169.3, 185.0)">r</text><text xml:space="preserve" font-family="TrebuchetMS" font-size="22.0" fill="#000071" transform="matrix(1.00, 0.00, -0.00, -1.00, 177.8, 185.0)">i</text><text xml:space="preserve" font-family="TrebuchetMS" font-size="22.0" fill="#000071" transform="matrix(1.00, 0.00, -0.00, -1.00, 184.1, 185.0)">m</text><text xml:space="preserve" font-family="TrebuchetMS" font-size="22.0" fill="#000071" transform="matrix(1.00, 0.00, -0.00, -1.00, 202.4, 185.0)">a</text><text xml:space="preserve" font-family="TrebuchetMS" font-size="22.0" fill="#000071" transform="matrix(1.00, 0.00, -0.00, -1.00, 213.9, 185.0)">r</text><text xml:space="preserve" font-family="TrebuchetMS" font-size="22.0" fill="#000071" transform="matrix(1.00, 0.00, -0.00, -1.00, 222.5, 185.0)">y</text><text xml:space="preserve" font-family="TrebuchetMS" font-size="22.0" fill="#000071" transform="matrix(1.00, 0.00, -0.00, -1.00, 233.3, 185.0)"> </text><text xml:space="preserve" font-family="TrebuchetMS" font-size="22.0" fill="#000071" transform="matrix(1.00, 0.00, -0.00, -1.00, 240.0, 185.0)">l</text><text xml:space="preserve" font-family="TrebuchetMS" font-size="22.0" fill="#000071" transform="matrix(1.00, 0.00, -0.00, -1.00, 246.5, 185.0)">o</text><text xml:space="preserve" font-family="TrebuchetMS" font-size="22.0" fill="#000071" transform="matrix(1.00, 0.00, -0.00, -1.00, 258.3, 185.0)">g</text><text xml:space="preserve" font-family="TrebuchetMS" font-size="22.0" fill="#000071" transform="matrix(1.00, 0.00, -0.00, -1.00, 269.3, 185.0)">i</text><text xml:space="preserve" font-family="TrebuchetMS" font-size="22.0" fill="#000071" transform="matrix(1.00, 0.00, -0.00, -1.00, 275.6, 185.0)">c</text><text xml:space="preserve" font-family="TrebuchetMS" font-size="22.0" fill="#000071" transform="matrix(1.00, 0.00, -0.00, -1.00, 286.4, 185.0)"> </text><text xml:space="preserve" font-family="ArialMT" font-size="22.0" fill="#000071" transform="matrix(1.00, 0.00, -0.00, -1.00, 52.6, 155.4)">•</text><text xml:space="preserve" font-family="TrebuchetMS" font-size="22.0" fill="#000071" transform="matrix(1.00, 0.00, -0.00, -1.00, 60.0, 155.0)">F</text><text xml:space="preserve" font-family="TrebuchetMS" font-size="22.0" fill="#000071" transform="matrix(1.00, 0.00, -0.00, -1.00, 71.5, 155.0)">r</text><text xml:space="preserve" font-family="TrebuchetMS" font-size="22.0" fill="#000071" transform="matrix(1.00, 0.00, -0.00, -1.00, 80.1, 155.0)">o</text><text xml:space="preserve" font-family="TrebuchetMS" font-size="22.0" fill="#000071" transform="matrix(1.00, 0.00, -0.00, -1.00, 91.9, 155.0)">n</text><text xml:space="preserve" font-family="TrebuchetMS" font-size="22.0" fill="#000071" transform="matrix(1.00, 0.00, -0.00, -1.00, 103.9, 155.0)">t</text><text xml:space="preserve" font-family="TrebuchetMS" font-size="22.0" fill="#000071" transform="matrix(1.00, 0.00, -0.00, -1.00, 112.7, 155.0)">-</text><text xml:space="preserve" font-family="TrebuchetMS" font-size="22.0" fill="#000071" transform="matrix(1.00, 0.00, -0.00, -1.00, 120.8, 155.0)">e</text><text xml:space="preserve" font-family="TrebuchetMS" font-size="22.0" fill="#000071" transform="matrix(1.00, 0.00, -0.00, -1.00, 132.8, 155.0)">n</text><text xml:space="preserve" font-family="TrebuchetMS" font-size="22.0" fill="#000071" transform="matrix(1.00, 0.00, -0.00, -1.00, 144.8, 155.0)">d</text><text xml:space="preserve" font-family="TrebuchetMS" font-size="22.0" fill="#000071" transform="matrix(1.00, 0.00, -0.00, -1.00, 157.1, 155.0)"> </text><text xml:space="preserve" font-family="TrebuchetMS" font-size="22.0" fill="#000071" transform="matrix(1.00, 0.00, -0.00, -1.00, 163.7, 155.0)">h</text><text xml:space="preserve" font-family="TrebuchetMS" font-size="22.0" fill="#000071" transform="matrix(1.00, 0.00, -0.00, -1.00, 175.7, 155.0)">e</text><text xml:space="preserve" font-family="TrebuchetMS" font-size="22.0" fill="#000071" transform="matrix(1.00, 0.00, -0.00, -1.00, 187.8, 155.0)">a</text><text xml:space="preserve" font-family="TrebuchetMS" font-size="22.0" fill="#000071" transform="matrix(1.00, 0.00, -0.00, -1.00, 199.3, 155.0)">v</text><text xml:space="preserve" font-family="TrebuchetMS" font-size="22.0" fill="#000071" transform="matrix(1.00, 0.00, -0.00, -1.00, 210.1, 155.0)">y</text><text xml:space="preserve" font-family="TrebuchetMS" font-size="22.0" fill="#000071" transform="matrix(1.00, 0.00, -0.00, -1.00, 221.0, 155.0)"> </text><text xml:space="preserve" font-family="TrebuchetMS" font-size="22.0" fill="#000071" transform="matrix(1.00, 0.00, -0.00, -1.00, 227.6, 155.0)">a</text><text xml:space="preserve" font-family="TrebuchetMS" font-size="22.0" fill="#000071" transform="matrix(1.00, 0.00, -0.00, -1.00, 239.2, 155.0)">p</text><text xml:space="preserve" font-family="TrebuchetMS" font-size="22.0" fill="#000071" transform="matrix(1.00, 0.00, -0.00, -1.00, 251.4, 155.0)">p</text><text xml:space="preserve" font-family="TrebuchetMS" font-size="22.0" fill="#000071" transform="matrix(1.00, 0.00, -0.00, -1.00, 263.5, 155.0)"> </text><text xml:space="preserve" font-family="ArialMT" font-size="24.0" fill="#000000" transform="matrix(1.00, 0.00, -0.00, -1.00, 21.6, 127.9)">•</text><text xml:space="preserve" font-family="TrebuchetMS" font-size="24.0" fill="#000000" transform="matrix(1.00, 0.00, -0.00, -1.00, 30.0, 128.0)">O</text><text xml:space="preserve" font-family="TrebuchetMS" font-size="24.0" fill="#000000" transform="matrix(1.00, 0.00, -0.00, -1.00, 46.2, 128.0)">b</text><text xml:space="preserve" font-family="TrebuchetMS" font-size="24.0" fill="#000000" transform="matrix(1.00, 0.00, -0.00, -1.00, 59.5, 128.0)">s</text><text xml:space="preserve" font-family="TrebuchetMS" font-size="24.0" fill="#000000" transform="matrix(1.00, 0.00, -0.00, -1.00, 69.2, 128.0)">e</text><text xml:space="preserve" font-family="TrebuchetMS" font-size="24.0" fill="#000000" transform="matrix(1.00, 0.00, -0.00, -1.00, 82.4, 128.0)">r</text><text xml:space="preserve" font-family="TrebuchetMS" font-size="24.0" fill="#000000" transform="matrix(1.00, 0.00, -0.00, -1.00, 91.7, 128.0)">v</text><text xml:space="preserve" font-family="TrebuchetMS" font-size="24.0" fill="#000000" transform="matrix(1.00, 0.00, -0.00, -1.00, 103.4, 128.0)">a</text><text xml:space="preserve" font-family="TrebuchetMS" font-size="24.0" fill="#000000" transform="matrix(1.00, 0.00, -0.00, -1.00, 116.1, 128.0)">t</text><text xml:space="preserve" font-family="TrebuchetMS" font-size="24.0" fill="#000000" transform="matrix(1.00, 0.00, -0.00, -1.00, 125.6, 128.0)">i</text><text xml:space="preserve" font-family="TrebuchetMS" font-size="24.0" fill="#000000" transform="matrix(1.00, 0.00, -0.00, -1.00, 132.4, 128.0)">o</text><text xml:space="preserve" font-family="TrebuchetMS" font-size="24.0" fill="#000000" transform="matrix(1.00, 0.00, -0.00, -1.00, 145.3, 128.0)">n</text><text xml:space="preserve" font-family="TrebuchetMS" font-size="24.0" fill="#000000" transform="matrix(1.00, 0.00, -0.00, -1.00, 158.4, 128.0)">s</text><text xml:space="preserve" font-family="TrebuchetMS" font-size="24.0" fill="#000000" transform="matrix(1.00, 0.00, -0.00, -1.00, 168.1, 128.0)"> </text><text xml:space="preserve" font-family="TrebuchetMS" font-size="24.0" fill="#000000" transform="matrix(1.00, 0.00, -0.00, -1.00, 175.4, 128.0)">o</text><text xml:space="preserve" font-family="TrebuchetMS" font-size="24.0" fill="#000000" transform="matrix(1.00, 0.00, -0.00, -1.00, 188.3, 128.0)">f</text><text xml:space="preserve" font-family="TrebuchetMS" font-size="24.0" fill="#000000" transform="matrix(1.00, 0.00, -0.00, -1.00, 197.1, 128.0)"> </text><text xml:space="preserve" font-family="TrebuchetMS" font-size="24.0" fill="#000000" transform="matrix(1.00, 0.00, -0.00, -1.00, 204.4, 128.0)">a</text><text xml:space="preserve" font-family="TrebuchetMS" font-size="24.0" fill="#000000" transform="matrix(1.00, 0.00, -0.00, -1.00, 217.0, 128.0)"> </text><text xml:space="preserve" font-family="TrebuchetMS" font-size="24.0" fill="#000000" transform="matrix(1.00, 0.00, -0.00, -1.00, 224.3, 128.0)">c</text><text xml:space="preserve" font-family="TrebuchetMS" font-size="24.0" fill="#000000" transform="matrix(1.00, 0.00, -0.00, -1.00, 236.1, 128.0)">o</text><text xml:space="preserve" font-family="TrebuchetMS" font-size="24.0" fill="#000000" transform="matrix(1.00, 0.00, -0.00, -1.00, 249.0, 128.0)">r</text><text xml:space="preserve" font-family="TrebuchetMS" font-size="24.0" fill="#000000" transform="matrix(1.00, 0.00, -0.00, -1.00, 258.3, 128.0)">p</text><text xml:space="preserve" font-family="TrebuchetMS" font-size="24.0" fill="#000000" transform="matrix(1.00, 0.00, -0.00, -1.00, 271.7, 128.0)">o</text><text xml:space="preserve" font-family="TrebuchetMS" font-size="24.0" fill="#000000" transform="matrix(1.00, 0.00, -0.00, -1.00, 284.6, 128.0)">r</text><text xml:space="preserve" font-family="TrebuchetMS" font-size="24.0" fill="#000000" transform="matrix(1.00, 0.00, -0.00, -1.00, 293.9, 128.0)">a</text><text xml:space="preserve" font-family="TrebuchetMS" font-size="24.0" fill="#000000" transform="matrix(1.00, 0.00, -0.00, -1.00, 306.5, 128.0)">t</text><text xml:space="preserve" font-family="TrebuchetMS" font-size="24.0" fill="#000000" transform="matrix(1.00, 0.00, -0.00, -1.00, 316.1, 128.0)">e</text><text xml:space="preserve" font-family="TrebuchetMS" font-size="24.0" fill="#000000" transform="matrix(1.00, 0.00, -0.00, -1.00, 329.2, 128.0)"> </text><text xml:space="preserve" font-family="TrebuchetMS" font-size="24.0" fill="#000000" transform="matrix(1.00, 0.00, -0.00, -1.00, 336.4, 128.0)">d</text><text xml:space="preserve" font-family="TrebuchetMS" font-size="24.0" fill="#000000" transform="matrix(1.00, 0.00, -0.00, -1.00, 349.8, 128.0)">e</text><text xml:space="preserve" font-family="TrebuchetMS" font-size="24.0" fill="#000000" transform="matrix(1.00, 0.00, -0.00, -1.00, 362.9, 128.0)">v</text><text xml:space="preserve" font-family="TrebuchetMS" font-size="24.0" fill="#000000" transform="matrix(1.00, 0.00, -0.00, -1.00, 374.6, 128.0)">e</text><text xml:space="preserve" font-family="TrebuchetMS" font-size="24.0" fill="#000000" transform="matrix(1.00, 0.00, -0.00, -1.00, 387.8, 128.0)">l</text><text xml:space="preserve" font-family="TrebuchetMS" font-size="24.0" fill="#000000" transform="matrix(1.00, 0.00, -0.00, -1.00, 394.8, 128.0)">o</text><text xml:space="preserve" font-family="TrebuchetMS" font-size="24.0" fill="#000000" transform="matrix(1.00, 0.00, -0.00, -1.00, 407.7, 128.0)">p</text><text xml:space="preserve" font-family="TrebuchetMS" font-size="24.0" fill="#000000" transform="matrix(1.00, 0.00, -0.00, -1.00, 421.1, 128.0)">e</text><text xml:space="preserve" font-family="TrebuchetMS" font-size="24.0" fill="#000000" transform="matrix(1.00, 0.00, -0.00, -1.00, 434.2, 128.0)">r</text><text xml:space="preserve" font-family="TrebuchetMS" font-size="24.0" fill="#000000" transform="matrix(1.00, 0.00, -0.00, -1.00, 443.3, 128.0)"> </text><text xml:space="preserve" font-family="ArialMT" font-size="24.0" fill="#000000" transform="matrix(1.00, 0.00, -0.00, -1.00, 21.6, 95.9)">•</text><text xml:space="preserve" font-family="TrebuchetMS" font-size="24.0" fill="#000000" transform="matrix(1.00, 0.00, -0.00, -1.00, 30.0, 96.0)">H</text><text xml:space="preserve" font-family="TrebuchetMS" font-size="24.0" fill="#000000" transform="matrix(1.00, 0.00, -0.00, -1.00, 45.7, 96.0)">o</text><text xml:space="preserve" font-family="TrebuchetMS" font-size="24.0" fill="#000000" transform="matrix(1.00, 0.00, -0.00, -1.00, 58.6, 96.0)">w</text><text xml:space="preserve" font-family="TrebuchetMS" font-size="24.0" fill="#000000" transform="matrix(1.00, 0.00, -0.00, -1.00, 76.4, 96.0)">?</text><text xml:space="preserve" font-family="TrebuchetMS" font-size="24.0" fill="#000000" transform="matrix(1.00, 0.00, -0.00, -1.00, 85.3, 96.0)"> </text><text xml:space="preserve" font-family="TrebuchetMS" font-size="24.0" fill="#000000" transform="matrix(1.00, 0.00, -0.00, -1.00, 92.5, 96.0)">(</text><text xml:space="preserve" font-family="TrebuchetMS" font-size="24.0" fill="#000000" transform="matrix(1.00, 0.00, -0.00, -1.00, 101.3, 96.0)">O</text><text xml:space="preserve" font-family="TrebuchetMS" font-size="24.0" fill="#000000" transform="matrix(1.00, 0.00, -0.00, -1.00, 117.5, 96.0)">u</text><text xml:space="preserve" font-family="TrebuchetMS" font-size="24.0" fill="#000000" transform="matrix(1.00, 0.00, -0.00, -1.00, 130.6, 96.0)">t</text><text xml:space="preserve" font-family="TrebuchetMS" font-size="24.0" fill="#000000" transform="matrix(1.00, 0.00, -0.00, -1.00, 140.1, 96.0)">s</text><text xml:space="preserve" font-family="TrebuchetMS" font-size="24.0" fill="#000000" transform="matrix(1.00, 0.00, -0.00, -1.00, 149.8, 96.0)">i</text><text xml:space="preserve" font-family="TrebuchetMS" font-size="24.0" fill="#000000" transform="matrix(1.00, 0.00, -0.00, -1.00, 156.7, 96.0)">d</text><text xml:space="preserve" font-family="TrebuchetMS" font-size="24.0" fill="#000000" transform="matrix(1.00, 0.00, -0.00, -1.00, 170.0, 96.0)">e</text><text xml:space="preserve" font-family="TrebuchetMS" font-size="24.0" fill="#000000" transform="matrix(1.00, 0.00, -0.00, -1.00, 183.1, 96.0)"> </text><text xml:space="preserve" font-family="TrebuchetMS" font-size="24.0" fill="#000000" transform="matrix(1.00, 0.00, -0.00, -1.00, 190.4, 96.0)">t</text><text xml:space="preserve" font-family="TrebuchetMS" font-size="24.0" fill="#000000" transform="matrix(1.00, 0.00, -0.00, -1.00, 199.9, 96.0)">h</text><text xml:space="preserve" font-family="TrebuchetMS" font-size="24.0" fill="#000000" transform="matrix(1.00, 0.00, -0.00, -1.00, 213.0, 96.0)">e</text><text xml:space="preserve" font-family="TrebuchetMS" font-size="24.0" fill="#000000" transform="matrix(1.00, 0.00, -0.00, -1.00, 226.1, 96.0)"> </text><text xml:space="preserve" font-family="TrebuchetMS" font-size="24.0" fill="#000000" transform="matrix(1.00, 0.00, -0.00, -1.00, 232.0, 96.0)">A</text><text xml:space="preserve" font-family="TrebuchetMS" font-size="24.0" fill="#000000" transform="matrix(1.00, 0.00, -0.00, -1.00, 246.2, 96.0)">p</text><text xml:space="preserve" font-family="TrebuchetMS" font-size="24.0" fill="#000000" transform="matrix(1.00, 0.00, -0.00, -1.00, 259.6, 96.0)">p</text><text xml:space="preserve" font-family="TrebuchetMS" font-size="24.0" fill="#000000" transform="matrix(1.00, 0.00, -0.00, -1.00, 272.9, 96.0)">)</text><text xml:space="preserve" font-family="TrebuchetMS" font-size="24.0" fill="#000000" transform="matrix(1.00, 0.00, -0.00, -1.00, 281.7, 96.0)"> </text><text xml:space="preserve" font-family="ArialMT" font-size="24.0" fill="#000000" transform="matrix(1.00, 0.00, -0.00, -1.00, 21.6, 63.9)">•</text><text xml:space="preserve" font-family="TrebuchetMS" font-size="24.0" fill="#000000" transform="matrix(1.00, 0.00, -0.00, -1.00, 30.0, 64.0)">D</text><text xml:space="preserve" font-family="TrebuchetMS" font-size="24.0" fill="#000000" transform="matrix(1.00, 0.00, -0.00, -1.00, 44.7, 64.0)">e</text><text xml:space="preserve" font-family="TrebuchetMS" font-size="24.0" fill="#000000" transform="matrix(1.00, 0.00, -0.00, -1.00, 57.8, 64.0)">m</text><text xml:space="preserve" font-family="TrebuchetMS" font-size="24.0" fill="#000000" transform="matrix(1.00, 0.00, -0.00, -1.00, 77.8, 64.0)">o</text><text xml:space="preserve" font-family="TrebuchetMS" font-size="24.0" fill="#000000" transform="matrix(1.00, 0.00, -0.00, -1.00, 90.6, 64.0)">s</text><text xml:space="preserve" font-family="TrebuchetMS" font-size="36.0" fill="#000000" transform="matrix(1.00, 0.00, -0.00, -1.00, 22.0, 436.0)">A</text><text xml:space="preserve" font-family="TrebuchetMS" font-size="36.0" fill="#000000" transform="matrix(1.00, 0.00, -0.00, -1.00, 43.2, 436.0)">g</text><text xml:space="preserve" font-family="TrebuchetMS" font-size="36.0" fill="#000000" transform="matrix(1.00, 0.00, -0.00, -1.00, 61.3, 436.0)">e</text><text xml:space="preserve" font-family="TrebuchetMS" font-size="36.0" fill="#000000" transform="matrix(1.00, 0.00, -0.00, -1.00, 80.9, 436.0)">n</text><text xml:space="preserve" font-family="TrebuchetMS" font-size="36.0" fill="#000000" transform="matrix(1.00, 0.00, -0.00, -1.00, 100.6, 436.0)">d</text><text xml:space="preserve" font-family="TrebuchetMS" font-size="36.0" fill="#000000" transform="matrix(1.00, 0.00, -0.00, -1.00, 120.7, 436.0)">a</text></g></svg>