<?xml version="1.0" encoding="UTF-8" standalone="no"?><svg xmlns="http://www.w3.org/2000/svg" xmlns:xlink="http://www.w3.org/1999/xlink" clip-rule="evenodd" stroke-miterlimit="4.00" viewBox="0 0 720 540"><desc>SVG generated by Keynote</desc><defs></defs><g transform="matrix(1.00, 0.00, -0.00, -1.00, 0.0, 540.0)"><g><clipPath id="clip-37"><path d="M 0.0 540.0 L 720.0 540.0 L 720.0 0.0 L 0.0 0.0 Z M 0.0 540.0 "></path></clipPath><g clip-path="url(#clip-37)"><image xlink:href="../../D4C2A304-6AEB-4EE1-82FF-F06C5FD3A0CF/assets/0188245E957EEFBAE5108680EFA80732.jpeg" width="720.00" height="576.00" transform="matrix(1.00, 0.00, -0.00, -0.94, 0.0, 540.0)"></image></g></g><image xlink:href="../../5C2619EE-A029-4F64-9A57-A6B1C78A1EF3/assets/908465DE374B4EB29ED9C163B481CD5D.png" width="340.00" height="456.00" transform="matrix(1.00, 0.00, -0.00, -1.00, 168.0, 480.0)"></image><text xml:space="preserve" font-family="ArialMT" font-size="18.0" fill="#0000FF" transform="matrix(1.00, 0.00, -0.00, -1.00, 44.0, 12.0)">h</text><text xml:space="preserve" font-family="ArialMT" font-size="18.0" fill="#0000FF" transform="matrix(1.00, 0.00, -0.00, -1.00, 54.0, 12.0)">t</text><text xml:space="preserve" font-family="ArialMT" font-size="18.0" fill="#0000FF" transform="matrix(1.00, 0.00, -0.00, -1.00, 59.0, 12.0)">t</text><text xml:space="preserve" font-family="ArialMT" font-size="18.0" fill="#0000FF" transform="matrix(1.00, 0.00, -0.00, -1.00, 64.0, 12.0)">p</text><text xml:space="preserve" font-family="ArialMT" font-size="18.0" fill="#0000FF" transform="matrix(1.00, 0.00, -0.00, -1.00, 74.0, 12.0)">:</text><text xml:space="preserve" font-family="ArialMT" font-size="18.0" fill="#0000FF" transform="matrix(1.00, 0.00, -0.00, -1.00, 79.0, 12.0)">/</text><text xml:space="preserve" font-family="ArialMT" font-size="18.0" fill="#0000FF" transform="matrix(1.00, 0.00, -0.00, -1.00, 84.0, 12.0)">/</text><text xml:space="preserve" font-family="ArialMT" font-size="18.0" fill="#0000FF" transform="matrix(1.00, 0.00, -0.00, -1.00, 89.0, 12.0)">w</text><text xml:space="preserve" font-family="ArialMT" font-size="18.0" fill="#0000FF" transform="matrix(1.00, 0.00, -0.00, -1.00, 102.0, 12.0)">w</text><text xml:space="preserve" font-family="ArialMT" font-size="18.0" fill="#0000FF" transform="matrix(1.00, 0.00, -0.00, -1.00, 115.0, 12.0)">w</text><text xml:space="preserve" font-family="ArialMT" font-size="18.0" fill="#0000FF" transform="matrix(1.00, 0.00, -0.00, -1.00, 127.0, 12.0)">.</text><text xml:space="preserve" font-family="ArialMT" font-size="18.0" fill="#0000FF" transform="matrix(1.00, 0.00, -0.00, -1.00, 132.0, 12.0)">c</text><text xml:space="preserve" font-family="ArialMT" font-size="18.0" fill="#0000FF" transform="matrix(1.00, 0.00, -0.00, -1.00, 141.0, 12.0)">o</text><text xml:space="preserve" font-family="ArialMT" font-size="18.0" fill="#0000FF" transform="matrix(1.00, 0.00, -0.00, -1.00, 151.0, 12.0)">m</text><text xml:space="preserve" font-family="ArialMT" font-size="18.0" fill="#0000FF" transform="matrix(1.00, 0.00, -0.00, -1.00, 166.0, 12.0)">m</text><text xml:space="preserve" font-family="ArialMT" font-size="18.0" fill="#0000FF" transform="matrix(1.00, 0.00, -0.00, -1.00, 181.0, 12.0)">i</text><text xml:space="preserve" font-family="ArialMT" font-size="18.0" fill="#0000FF" transform="matrix(1.00, 0.00, -0.00, -1.00, 185.0, 12.0)">t</text><text xml:space="preserve" font-family="ArialMT" font-size="18.0" fill="#0000FF" transform="matrix(1.00, 0.00, -0.00, -1.00, 190.0, 12.0)">s</text><text xml:space="preserve" font-family="ArialMT" font-size="18.0" fill="#0000FF" transform="matrix(1.00, 0.00, -0.00, -1.00, 199.0, 12.0)">t</text><text xml:space="preserve" font-family="ArialMT" font-size="18.0" fill="#0000FF" transform="matrix(1.00, 0.00, -0.00, -1.00, 204.0, 12.0)">r</text><text xml:space="preserve" font-family="ArialMT" font-size="18.0" fill="#0000FF" transform="matrix(1.00, 0.00, -0.00, -1.00, 210.0, 12.0)">i</text><text xml:space="preserve" font-family="ArialMT" font-size="18.0" fill="#0000FF" transform="matrix(1.00, 0.00, -0.00, -1.00, 214.0, 12.0)">p</text><text xml:space="preserve" font-family="ArialMT" font-size="18.0" fill="#0000FF" transform="matrix(1.00, 0.00, -0.00, -1.00, 224.0, 12.0)">.</text><text xml:space="preserve" font-family="ArialMT" font-size="18.0" fill="#0000FF" transform="matrix(1.00, 0.00, -0.00, -1.00, 229.0, 12.0)">c</text><text xml:space="preserve" font-family="ArialMT" font-size="18.0" fill="#0000FF" transform="matrix(1.00, 0.00, -0.00, -1.00, 238.0, 12.0)">o</text><text xml:space="preserve" font-family="ArialMT" font-size="18.0" fill="#0000FF" transform="matrix(1.00, 0.00, -0.00, -1.00, 248.1, 12.0)">m</text><text xml:space="preserve" font-family="ArialMT" font-size="18.0" fill="#0000FF" transform="matrix(1.00, 0.00, -0.00, -1.00, 263.0, 12.0)">/</text><text xml:space="preserve" font-family="ArialMT" font-size="18.0" fill="#0000FF" transform="matrix(1.00, 0.00, -0.00, -1.00, 268.0, 12.0)">e</text><text xml:space="preserve" font-family="ArialMT" font-size="18.0" fill="#0000FF" transform="matrix(1.00, 0.00, -0.00, -1.00, 278.1, 12.0)">n</text><text xml:space="preserve" font-family="ArialMT" font-size="18.0" fill="#0000FF" transform="matrix(1.00, 0.00, -0.00, -1.00, 288.1, 12.0)">/</text><text xml:space="preserve" font-family="ArialMT" font-size="18.0" fill="#0000FF" transform="matrix(1.00, 0.00, -0.00, -1.00, 293.1, 12.0)">2</text><text xml:space="preserve" font-family="ArialMT" font-size="18.0" fill="#0000FF" transform="matrix(1.00, 0.00, -0.00, -1.00, 303.1, 12.0)">0</text><text xml:space="preserve" font-family="ArialMT" font-size="18.0" fill="#0000FF" transform="matrix(1.00, 0.00, -0.00, -1.00, 313.1, 12.0)">1</text><text xml:space="preserve" font-family="ArialMT" font-size="18.0" fill="#0000FF" transform="matrix(1.00, 0.00, -0.00, -1.00, 323.1, 12.0)">5</text><text xml:space="preserve" font-family="ArialMT" font-size="18.0" fill="#0000FF" transform="matrix(1.00, 0.00, -0.00, -1.00, 333.1, 12.0)">/</text><text xml:space="preserve" font-family="ArialMT" font-size="18.0" fill="#0000FF" transform="matrix(1.00, 0.00, -0.00, -1.00, 338.1, 12.0)">0</text><text xml:space="preserve" font-family="ArialMT" font-size="18.0" fill="#0000FF" transform="matrix(1.00, 0.00, -0.00, -1.00, 348.1, 12.0)">6</text><text xml:space="preserve" font-family="ArialMT" font-size="18.0" fill="#0000FF" transform="matrix(1.00, 0.00, -0.00, -1.00, 358.2, 12.0)">/</text><text xml:space="preserve" font-family="ArialMT" font-size="18.0" fill="#0000FF" transform="matrix(1.00, 0.00, -0.00, -1.00, 363.1, 12.0)">2</text><text xml:space="preserve" font-family="ArialMT" font-size="18.0" fill="#0000FF" transform="matrix(1.00, 0.00, -0.00, -1.00, 373.2, 12.0)">2</text><text xml:space="preserve" font-family="ArialMT" font-size="18.0" fill="#0000FF" transform="matrix(1.00, 0.00, -0.00, -1.00, 383.2, 12.0)">/</text><text xml:space="preserve" font-family="ArialMT" font-size="18.0" fill="#0000FF" transform="matrix(1.00, 0.00, -0.00, -1.00, 388.2, 12.0)">c</text><text xml:space="preserve" font-family="ArialMT" font-size="18.0" fill="#0000FF" transform="matrix(1.00, 0.00, -0.00, -1.00, 397.2, 12.0)">a</text><text xml:space="preserve" font-family="ArialMT" font-size="18.0" fill="#0000FF" transform="matrix(1.00, 0.00, -0.00, -1.00, 407.2, 12.0)">n</text><text xml:space="preserve" font-family="ArialMT" font-size="18.0" fill="#0000FF" transform="matrix(1.00, 0.00, -0.00, -1.00, 417.2, 12.0)">-</text><text xml:space="preserve" font-family="ArialMT" font-size="18.0" fill="#0000FF" transform="matrix(1.00, 0.00, -0.00, -1.00, 423.2, 12.0)">w</text><text xml:space="preserve" font-family="ArialMT" font-size="18.0" fill="#0000FF" transform="matrix(1.00, 0.00, -0.00, -1.00, 436.2, 12.0)">e</text><text xml:space="preserve" font-family="ArialMT" font-size="18.0" fill="#0000FF" transform="matrix(1.00, 0.00, -0.00, -1.00, 446.2, 12.0)">-</text><text xml:space="preserve" font-family="ArialMT" font-size="18.0" fill="#0000FF" transform="matrix(1.00, 0.00, -0.00, -1.00, 452.2, 12.0)">a</text><text xml:space="preserve" font-family="ArialMT" font-size="18.0" fill="#0000FF" transform="matrix(1.00, 0.00, -0.00, -1.00, 462.2, 12.0)">u</text><text xml:space="preserve" font-family="ArialMT" font-size="18.0" fill="#0000FF" transform="matrix(1.00, 0.00, -0.00, -1.00, 472.2, 12.0)">t</text><text xml:space="preserve" font-family="ArialMT" font-size="18.0" fill="#0000FF" transform="matrix(1.00, 0.00, -0.00, -1.00, 477.2, 12.0)">o</text><text xml:space="preserve" font-family="ArialMT" font-size="18.0" fill="#0000FF" transform="matrix(1.00, 0.00, -0.00, -1.00, 487.2, 12.0)">m</text><text xml:space="preserve" font-family="ArialMT" font-size="18.0" fill="#0000FF" transform="matrix(1.00, 0.00, -0.00, -1.00, 502.2, 12.0)">a</text><text xml:space="preserve" font-family="ArialMT" font-size="18.0" fill="#0000FF" transform="matrix(1.00, 0.00, -0.00, -1.00, 512.3, 12.0)">t</text><text xml:space="preserve" font-family="ArialMT" font-size="18.0" fill="#0000FF" transform="matrix(1.00, 0.00, -0.00, -1.00, 517.3, 12.0)">e</text><text xml:space="preserve" font-family="ArialMT" font-size="18.0" fill="#0000FF" transform="matrix(1.00, 0.00, -0.00, -1.00, 527.3, 12.0)">-</text><text xml:space="preserve" font-family="ArialMT" font-size="18.0" fill="#0000FF" transform="matrix(1.00, 0.00, -0.00, -1.00, 533.3, 12.0)">e</text><text xml:space="preserve" font-family="ArialMT" font-size="18.0" fill="#0000FF" transform="matrix(1.00, 0.00, -0.00, -1.00, 543.3, 12.0)">v</text><text xml:space="preserve" font-family="ArialMT" font-size="18.0" fill="#0000FF" transform="matrix(1.00, 0.00, -0.00, -1.00, 552.3, 12.0)">e</text><text xml:space="preserve" font-family="ArialMT" font-size="18.0" fill="#0000FF" transform="matrix(1.00, 0.00, -0.00, -1.00, 562.3, 12.0)">r</text><text xml:space="preserve" font-family="ArialMT" font-size="18.0" fill="#0000FF" transform="matrix(1.00, 0.00, -0.00, -1.00, 568.3, 12.0)">y</text><text xml:space="preserve" font-family="ArialMT" font-size="18.0" fill="#0000FF" transform="matrix(1.00, 0.00, -0.00, -1.00, 577.3, 12.0)">t</text><text xml:space="preserve" font-family="ArialMT" font-size="18.0" fill="#0000FF" transform="matrix(1.00, 0.00, -0.00, -1.00, 582.3, 12.0)">h</text><text xml:space="preserve" font-family="ArialMT" font-size="18.0" fill="#0000FF" transform="matrix(1.00, 0.00, -0.00, -1.00, 592.3, 12.0)">i</text><text xml:space="preserve" font-family="ArialMT" font-size="18.0" fill="#0000FF" transform="matrix(1.00, 0.00, -0.00, -1.00, 596.3, 12.0)">n</text><text xml:space="preserve" font-family="ArialMT" font-size="18.0" fill="#0000FF" transform="matrix(1.00, 0.00, -0.00, -1.00, 606.3, 12.0)">g</text><text xml:space="preserve" font-family="ArialMT" font-size="18.0" fill="#0000FF" transform="matrix(1.00, 0.00, -0.00, -1.00, 616.3, 12.0)">/</text><g><clipPath id="clip-38"><path d="M 42.7 8.8 L 621.0 8.8 L 621.0 12.1 L 42.7 12.1 Z M 42.7 8.8 "></path></clipPath><g clip-path="url(#clip-38)"><path d="M 7.2 25.7 L 584.5 25.7 " fill="none" stroke="#0000FF" stroke-width="1.32" stroke-miterlimit="0.00" transform="matrix(1.00, 0.00, 0.00, -1.00, 36.5, 36.2)"></path></g></g></g></svg>