<?xml version="1.0" encoding="UTF-8" standalone="no"?><svg xmlns="http://www.w3.org/2000/svg" xmlns:xlink="http://www.w3.org/1999/xlink" clip-rule="evenodd" stroke-miterlimit="4.00" viewBox="0 0 720 540"><desc>SVG generated by Keynote</desc><defs></defs><g transform="matrix(1.00, 0.00, -0.00, -1.00, 0.0, 540.0)"><g><clipPath id="clip-0"><path d="M 0.0 540.0 L 720.0 540.0 L 720.0 0.0 L 0.0 0.0 Z M 0.0 540.0 "></path></clipPath><g clip-path="url(#clip-0)"><image xlink:href="0188245E957EEFBAE5108680EFA80732.jpeg" width="720.00" height="576.00" transform="matrix(1.00, 0.00, -0.00, -0.94, 0.0, 540.0)"></image></g></g><text xml:space="preserve" font-family="TrebuchetMS-Bold" font-weight="bold" font-size="18.0" fill="#003399" transform="matrix(1.00, 0.00, -0.00, -1.00, 292.0, 39.0)">M</text><text xml:space="preserve" font-family="TrebuchetMS-Bold" font-weight="bold" font-size="18.0" fill="#003399" transform="matrix(1.00, 0.00, -0.00, -1.00, 305.4, 39.0)">W</text><text xml:space="preserve" font-family="TrebuchetMS-Bold" font-weight="bold" font-size="18.0" fill="#003399" transform="matrix(1.00, 0.00, -0.00, -1.00, 321.3, 39.0)">L</text><text xml:space="preserve" font-family="TrebuchetMS-Bold" font-weight="bold" font-size="18.0" fill="#003399" transform="matrix(1.00, 0.00, -0.00, -1.00, 331.3, 39.0)">U</text><text xml:space="preserve" font-family="TrebuchetMS-Bold" font-weight="bold" font-size="18.0" fill="#003399" transform="matrix(1.00, 0.00, -0.00, -1.00, 343.5, 39.0)">G</text><text xml:space="preserve" font-family="TrebuchetMS-Bold" font-weight="bold" font-size="18.0" fill="#003399" transform="matrix(1.00, 0.00, -0.00, -1.00, 355.6, 39.0)"> </text><text xml:space="preserve" font-family="TrebuchetMS-Bold" font-weight="bold" font-size="18.0" fill="#003399" transform="matrix(1.00, 0.00, -0.00, -1.00, 361.0, 39.0)">2</text><text xml:space="preserve" font-family="TrebuchetMS-Bold" font-weight="bold" font-size="18.0" fill="#003399" transform="matrix(1.00, 0.00, -0.00, -1.00, 371.5, 39.0)">0</text><text xml:space="preserve" font-family="TrebuchetMS-Bold" font-weight="bold" font-size="18.0" fill="#003399" transform="matrix(1.00, 0.00, -0.00, -1.00, 382.1, 39.0)">1</text><text xml:space="preserve" font-family="TrebuchetMS-Bold" font-weight="bold" font-size="18.0" fill="#003399" transform="matrix(1.00, 0.00, -0.00, -1.00, 392.6, 39.0)">4</text><text xml:space="preserve" font-family="TrebuchetMS-Bold" font-weight="bold" font-size="27.0" fill="#000000" transform="matrix(1.00, 0.00, -0.00, -1.00, 41.0, 307.0)">A</text><text xml:space="preserve" font-family="TrebuchetMS-Bold" font-weight="bold" font-size="27.0" fill="#000000" transform="matrix(1.00, 0.00, -0.00, -1.00, 56.6, 307.0)"> </text><text xml:space="preserve" font-family="TrebuchetMS-Bold" font-weight="bold" font-size="27.0" fill="#000000" transform="matrix(1.00, 0.00, -0.00, -1.00, 64.8, 307.0)">M</text><text xml:space="preserve" font-family="TrebuchetMS-Bold" font-weight="bold" font-size="27.0" fill="#000000" transform="matrix(1.00, 0.00, -0.00, -1.00, 84.9, 307.0)">o</text><text xml:space="preserve" font-family="TrebuchetMS-Bold" font-weight="bold" font-size="27.0" fill="#000000" transform="matrix(1.00, 0.00, -0.00, -1.00, 100.2, 307.0)">d</text><text xml:space="preserve" font-family="TrebuchetMS-Bold" font-weight="bold" font-size="27.0" fill="#000000" transform="matrix(1.00, 0.00, -0.00, -1.00, 115.8, 307.0)">e</text><text xml:space="preserve" font-family="TrebuchetMS-Bold" font-weight="bold" font-size="27.0" fill="#000000" transform="matrix(1.00, 0.00, -0.00, -1.00, 131.4, 307.0)">r</text><text xml:space="preserve" font-family="TrebuchetMS-Bold" font-weight="bold" font-size="27.0" fill="#000000" transform="matrix(1.00, 0.00, -0.00, -1.00, 142.9, 307.0)">n</text><text xml:space="preserve" font-family="TrebuchetMS-Bold" font-weight="bold" font-size="27.0" fill="#000000" transform="matrix(1.00, 0.00, -0.00, -1.00, 158.8, 307.0)">i</text><text xml:space="preserve" font-family="TrebuchetMS-Bold" font-weight="bold" font-size="27.0" fill="#000000" transform="matrix(1.00, 0.00, -0.00, -1.00, 166.9, 307.0)">z</text><text xml:space="preserve" font-family="TrebuchetMS-Bold" font-weight="bold" font-size="27.0" fill="#000000" transform="matrix(1.00, 0.00, -0.00, -1.00, 181.2, 307.0)">e</text><text xml:space="preserve" font-family="TrebuchetMS-Bold" font-weight="bold" font-size="27.0" fill="#000000" transform="matrix(1.00, 0.00, -0.00, -1.00, 196.7, 307.0)">d</text><text xml:space="preserve" font-family="TrebuchetMS-Bold" font-weight="bold" font-size="27.0" fill="#000000" transform="matrix(1.00, 0.00, -0.00, -1.00, 212.4, 307.0)"> </text><text xml:space="preserve" font-family="TrebuchetMS-Bold" font-weight="bold" font-size="27.0" fill="#000000" transform="matrix(1.00, 0.00, -0.00, -1.00, 220.5, 307.0)">D</text><text xml:space="preserve" font-family="TrebuchetMS-Bold" font-weight="bold" font-size="27.0" fill="#000000" transform="matrix(1.00, 0.00, -0.00, -1.00, 237.8, 307.0)">e</text><text xml:space="preserve" font-family="TrebuchetMS-Bold" font-weight="bold" font-size="27.0" fill="#000000" transform="matrix(1.00, 0.00, -0.00, -1.00, 253.4, 307.0)">v</text><text xml:space="preserve" font-family="TrebuchetMS-Bold" font-weight="bold" font-size="27.0" fill="#000000" transform="matrix(1.00, 0.00, -0.00, -1.00, 267.6, 307.0)">e</text><text xml:space="preserve" font-family="TrebuchetMS-Bold" font-weight="bold" font-size="27.0" fill="#000000" transform="matrix(1.00, 0.00, -0.00, -1.00, 283.1, 307.0)">l</text><text xml:space="preserve" font-family="TrebuchetMS-Bold" font-weight="bold" font-size="27.0" fill="#000000" transform="matrix(1.00, 0.00, -0.00, -1.00, 291.1, 307.0)">o</text><text xml:space="preserve" font-family="TrebuchetMS-Bold" font-weight="bold" font-size="27.0" fill="#000000" transform="matrix(1.00, 0.00, -0.00, -1.00, 306.4, 307.0)">p</text><text xml:space="preserve" font-family="TrebuchetMS-Bold" font-weight="bold" font-size="27.0" fill="#000000" transform="matrix(1.00, 0.00, -0.00, -1.00, 322.1, 307.0)">e</text><text xml:space="preserve" font-family="TrebuchetMS-Bold" font-weight="bold" font-size="27.0" fill="#000000" transform="matrix(1.00, 0.00, -0.00, -1.00, 337.6, 307.0)">r</text><text xml:space="preserve" font-family="TrebuchetMS-Bold" font-weight="bold" font-size="27.0" fill="#000000" transform="matrix(1.00, 0.00, -0.00, -1.00, 349.1, 307.0)">'</text><text xml:space="preserve" font-family="TrebuchetMS-Bold" font-weight="bold" font-size="27.0" fill="#000000" transform="matrix(1.00, 0.00, -0.00, -1.00, 355.3, 307.0)">s</text><text xml:space="preserve" font-family="TrebuchetMS-Bold" font-weight="bold" font-size="27.0" fill="#000000" transform="matrix(1.00, 0.00, -0.00, -1.00, 367.0, 307.0)"> </text><text xml:space="preserve" font-family="TrebuchetMS-Bold" font-weight="bold" font-size="27.0" fill="#000000" transform="matrix(1.00, 0.00, -0.00, -1.00, 375.1, 307.0)">W</text><text xml:space="preserve" font-family="TrebuchetMS-Bold" font-weight="bold" font-size="27.0" fill="#000000" transform="matrix(1.00, 0.00, -0.00, -1.00, 398.5, 307.0)">o</text><text xml:space="preserve" font-family="TrebuchetMS-Bold" font-weight="bold" font-size="27.0" fill="#000000" transform="matrix(1.00, 0.00, -0.00, -1.00, 413.8, 307.0)">r</text><text xml:space="preserve" font-family="TrebuchetMS-Bold" font-weight="bold" font-size="27.0" fill="#000000" transform="matrix(1.00, 0.00, -0.00, -1.00, 425.3, 307.0)">k</text><text xml:space="preserve" font-family="TrebuchetMS-Bold" font-weight="bold" font-size="27.0" fill="#000000" transform="matrix(1.00, 0.00, -0.00, -1.00, 440.1, 307.0)">f</text><text xml:space="preserve" font-family="TrebuchetMS-Bold" font-weight="bold" font-size="27.0" fill="#000000" transform="matrix(1.00, 0.00, -0.00, -1.00, 450.1, 307.0)">l</text><text xml:space="preserve" font-family="TrebuchetMS-Bold" font-weight="bold" font-size="27.0" fill="#000000" transform="matrix(1.00, 0.00, -0.00, -1.00, 458.0, 307.0)">o</text><text xml:space="preserve" font-family="TrebuchetMS-Bold" font-weight="bold" font-size="27.0" fill="#000000" transform="matrix(1.00, 0.00, -0.00, -1.00, 473.3, 307.0)">w</text><text xml:space="preserve" font-family="TrebuchetMS-Bold" font-weight="bold" font-size="27.0" fill="#000000" transform="matrix(1.00, 0.00, -0.00, -1.00, 494.5, 307.0)"> </text><text xml:space="preserve" font-family="TrebuchetMS-Bold" font-weight="bold" font-size="27.0" fill="#000000" transform="matrix(1.00, 0.00, -0.00, -1.00, 502.6, 307.0)">w</text><text xml:space="preserve" font-family="TrebuchetMS-Bold" font-weight="bold" font-size="27.0" fill="#000000" transform="matrix(1.00, 0.00, -0.00, -1.00, 523.8, 307.0)">i</text><text xml:space="preserve" font-family="TrebuchetMS-Bold" font-weight="bold" font-size="27.0" fill="#000000" transform="matrix(1.00, 0.00, -0.00, -1.00, 531.8, 307.0)">t</text><text xml:space="preserve" font-family="TrebuchetMS-Bold" font-weight="bold" font-size="27.0" fill="#000000" transform="matrix(1.00, 0.00, -0.00, -1.00, 542.6, 307.0)">h</text><text xml:space="preserve" font-family="TrebuchetMS-Bold" font-weight="bold" font-size="27.0" fill="#000000" transform="matrix(1.00, 0.00, -0.00, -1.00, 558.6, 307.0)"> </text><text xml:space="preserve" font-family="TrebuchetMS-Bold" font-weight="bold" font-size="27.0" fill="#000000" transform="matrix(1.00, 0.00, -0.00, -1.00, 566.7, 307.0)">D</text><text xml:space="preserve" font-family="TrebuchetMS-Bold" font-weight="bold" font-size="27.0" fill="#000000" transform="matrix(1.00, 0.00, -0.00, -1.00, 584.1, 307.0)">o</text><text xml:space="preserve" font-family="TrebuchetMS-Bold" font-weight="bold" font-size="27.0" fill="#000000" transform="matrix(1.00, 0.00, -0.00, -1.00, 599.3, 307.0)">m</text><text xml:space="preserve" font-family="TrebuchetMS-Bold" font-weight="bold" font-size="27.0" fill="#000000" transform="matrix(1.00, 0.00, -0.00, -1.00, 622.5, 307.0)">i</text><text xml:space="preserve" font-family="TrebuchetMS-Bold" font-weight="bold" font-size="27.0" fill="#000000" transform="matrix(1.00, 0.00, -0.00, -1.00, 630.6, 307.0)">n</text><text xml:space="preserve" font-family="TrebuchetMS-Bold" font-weight="bold" font-size="27.0" fill="#000000" transform="matrix(1.00, 0.00, -0.00, -1.00, 646.5, 307.0)">o</text><text xml:space="preserve" font-family="TrebuchetMS-Bold" font-weight="bold" font-size="27.0" fill="#000000" transform="matrix(1.00, 0.00, -0.00, -1.00, 661.8, 307.0)">/</text><text xml:space="preserve" font-family="TrebuchetMS-Bold" font-weight="bold" font-size="27.0" fill="#000000" transform="matrix(1.00, 0.00, -0.00, -1.00, 314.0, 276.0)">X</text><text xml:space="preserve" font-family="TrebuchetMS-Bold" font-weight="bold" font-size="27.0" fill="#000000" transform="matrix(1.00, 0.00, -0.00, -1.00, 330.2, 276.0)">P</text><text xml:space="preserve" font-family="TrebuchetMS-Bold" font-weight="bold" font-size="27.0" fill="#000000" transform="matrix(1.00, 0.00, -0.00, -1.00, 344.8, 276.0)">a</text><text xml:space="preserve" font-family="TrebuchetMS-Bold" font-weight="bold" font-size="27.0" fill="#000000" transform="matrix(1.00, 0.00, -0.00, -1.00, 359.2, 276.0)">g</text><text xml:space="preserve" font-family="TrebuchetMS-Bold" font-weight="bold" font-size="27.0" fill="#000000" transform="matrix(1.00, 0.00, -0.00, -1.00, 372.7, 276.0)">e</text><text xml:space="preserve" font-family="TrebuchetMS-Bold" font-weight="bold" font-size="27.0" fill="#000000" transform="matrix(1.00, 0.00, -0.00, -1.00, 388.2, 276.0)">s</text><text xml:space="preserve" font-family="LucidaGrande-Bold" font-weight="bold" font-size="27.0" fill="#000000" transform="matrix(1.00, 0.00, -0.00, -1.00, 399.9, 276.0)"> </text><text xml:space="preserve" font-family="TrebuchetMS" font-size="28.0" fill="#000000" transform="matrix(1.00, 0.00, -0.00, -1.00, 261.0, 127.0)">E</text><text xml:space="preserve" font-family="TrebuchetMS" font-size="28.0" fill="#000000" transform="matrix(1.00, 0.00, -0.00, -1.00, 276.0, 127.0)">r</text><text xml:space="preserve" font-family="TrebuchetMS" font-size="28.0" fill="#000000" transform="matrix(1.00, 0.00, -0.00, -1.00, 286.9, 127.0)">i</text><text xml:space="preserve" font-family="TrebuchetMS" font-size="28.0" fill="#000000" transform="matrix(1.00, 0.00, -0.00, -1.00, 294.9, 127.0)">c</text><text xml:space="preserve" font-family="TrebuchetMS" font-size="28.0" fill="#000000" transform="matrix(1.00, 0.00, -0.00, -1.00, 308.7, 127.0)"> </text><text xml:space="preserve" font-family="TrebuchetMS" font-size="28.0" fill="#000000" transform="matrix(1.00, 0.00, -0.00, -1.00, 317.2, 127.0)">M</text><text xml:space="preserve" font-family="TrebuchetMS" font-size="28.0" fill="#000000" transform="matrix(1.00, 0.00, -0.00, -1.00, 337.1, 127.0)">c</text><text xml:space="preserve" font-family="TrebuchetMS" font-size="28.0" fill="#000000" transform="matrix(1.00, 0.00, -0.00, -1.00, 351.0, 127.0)">C</text><text xml:space="preserve" font-family="TrebuchetMS" font-size="28.0" fill="#000000" transform="matrix(1.00, 0.00, -0.00, -1.00, 367.7, 127.0)">o</text><text xml:space="preserve" font-family="TrebuchetMS" font-size="28.0" fill="#000000" transform="matrix(1.00, 0.00, -0.00, -1.00, 382.7, 127.0)">r</text><text xml:space="preserve" font-family="TrebuchetMS" font-size="28.0" fill="#000000" transform="matrix(1.00, 0.00, -0.00, -1.00, 393.6, 127.0)">m</text><text xml:space="preserve" font-family="TrebuchetMS" font-size="28.0" fill="#000000" transform="matrix(1.00, 0.00, -0.00, -1.00, 416.9, 127.0)">i</text><text xml:space="preserve" font-family="TrebuchetMS" font-size="28.0" fill="#000000" transform="matrix(1.00, 0.00, -0.00, -1.00, 424.9, 127.0)">c</text><text xml:space="preserve" font-family="TrebuchetMS" font-size="28.0" fill="#000000" transform="matrix(1.00, 0.00, -0.00, -1.00, 438.7, 127.0)">k</text></g></svg>